<mxfile host="app.diagrams.net" modified="2021-08-01T09:09:36.120Z" agent="5.0 (Windows)" etag="MUEJamVkpTeX_3sD0p1c" version="14.9.2" type="github">
  <diagram id="gxz8Sv1CTupxVFfJ7cDf" name="First version">
    <mxGraphModel dx="1422" dy="814" grid="1" gridSize="10" guides="1" tooltips="1" connect="1" arrows="1" fold="1" page="1" pageScale="1" pageWidth="1169" pageHeight="827" math="0" shadow="0">
      <root>
        <mxCell id="oSWGqV9o0AvBEBVBbeev-0" />
        <mxCell id="oSWGqV9o0AvBEBVBbeev-1" parent="oSWGqV9o0AvBEBVBbeev-0" />
        <mxCell id="nri4QHcRawTcVYY0NXm0-1" value="" style="endArrow=none;html=1;entryX=1;entryY=0.5;entryDx=0;entryDy=0;fontFamily=Roboto;fontSource=https%3A%2F%2Ffonts.googleapis.com%2Fcss%3Ffamily%3DRoboto;" parent="oSWGqV9o0AvBEBVBbeev-1" target="nri4QHcRawTcVYY0NXm0-2" edge="1">
          <mxGeometry x="-10" y="410" width="50" height="50" as="geometry">
            <mxPoint x="145" y="440" as="sourcePoint" />
            <mxPoint x="140" y="455" as="targetPoint" />
          </mxGeometry>
        </mxCell>
        <mxCell id="v3urgeHAOFS-kcSvMq08-2" value="" style="endArrow=none;html=1;entryX=0.5;entryY=1;entryDx=0;entryDy=0;fontFamily=Roboto;fontSource=https%3A%2F%2Ffonts.googleapis.com%2Fcss%3Ffamily%3DRoboto;" parent="oSWGqV9o0AvBEBVBbeev-1" target="v3urgeHAOFS-kcSvMq08-0" edge="1">
          <mxGeometry x="170" y="280" width="50" height="50" as="geometry">
            <mxPoint x="240" y="270.0000000000002" as="sourcePoint" />
            <mxPoint x="-220" y="330" as="targetPoint" />
          </mxGeometry>
        </mxCell>
        <mxCell id="v3urgeHAOFS-kcSvMq08-1" value="&lt;div&gt;Numero&lt;/div&gt;&lt;div&gt;articoli&lt;br&gt;&lt;/div&gt;" style="text;html=1;strokeColor=none;fillColor=none;align=center;verticalAlign=middle;whiteSpace=wrap;rounded=0;fontFamily=Roboto;fontSource=https%3A%2F%2Ffonts.googleapis.com%2Fcss%3Ffamily%3DRoboto;rotation=0;" parent="oSWGqV9o0AvBEBVBbeev-1" vertex="1">
          <mxGeometry x="220" y="315" width="40" height="20" as="geometry" />
        </mxCell>
        <mxCell id="U4eYPNV9lYgERb9DngVO-0" value="" style="ellipse;whiteSpace=wrap;html=1;aspect=fixed;fontFamily=Roboto;fontSource=https%3A%2F%2Ffonts.googleapis.com%2Fcss%3Ffamily%3DRoboto;rotation=-180;" parent="oSWGqV9o0AvBEBVBbeev-1" vertex="1">
          <mxGeometry x="339.5" y="285" width="20" height="20" as="geometry" />
        </mxCell>
        <mxCell id="U4eYPNV9lYgERb9DngVO-1" value="&lt;div&gt;Prezzo&lt;/div&gt;&lt;div&gt;unitario&lt;/div&gt;&lt;div&gt;acquisto&lt;br&gt;&lt;/div&gt;" style="text;html=1;strokeColor=none;fillColor=none;align=center;verticalAlign=middle;whiteSpace=wrap;rounded=0;fontFamily=Roboto;fontSource=https%3A%2F%2Ffonts.googleapis.com%2Fcss%3Ffamily%3DRoboto;rotation=0;" parent="oSWGqV9o0AvBEBVBbeev-1" vertex="1">
          <mxGeometry x="329.5" y="315" width="40" height="20" as="geometry" />
        </mxCell>
        <mxCell id="U4eYPNV9lYgERb9DngVO-2" value="" style="endArrow=none;html=1;entryX=0.5;entryY=1;entryDx=0;entryDy=0;fontFamily=Roboto;fontSource=https%3A%2F%2Ffonts.googleapis.com%2Fcss%3Ffamily%3DRoboto;" parent="oSWGqV9o0AvBEBVBbeev-1" target="U4eYPNV9lYgERb9DngVO-0" edge="1">
          <mxGeometry x="279.5" y="275" width="50" height="50" as="geometry">
            <mxPoint x="349.5" y="265.0000000000001" as="sourcePoint" />
            <mxPoint x="-110.5" y="325" as="targetPoint" />
          </mxGeometry>
        </mxCell>
        <mxCell id="SQ0sSNVoyY-ed8Ng0SWT-173" value="" style="ellipse;whiteSpace=wrap;html=1;aspect=fixed;fontFamily=Roboto;fontSource=https%3A%2F%2Ffonts.googleapis.com%2Fcss%3Ffamily%3DRoboto;fillColor=#000000;" parent="oSWGqV9o0AvBEBVBbeev-1" vertex="1">
          <mxGeometry x="504.75" y="409" width="20" height="20" as="geometry" />
        </mxCell>
        <mxCell id="SQ0sSNVoyY-ed8Ng0SWT-174" value="" style="endArrow=none;html=1;entryX=0.5;entryY=1;entryDx=0;entryDy=0;fontFamily=Roboto;fontSource=https%3A%2F%2Ffonts.googleapis.com%2Fcss%3Ffamily%3DRoboto;" parent="oSWGqV9o0AvBEBVBbeev-1" target="SQ0sSNVoyY-ed8Ng0SWT-173" edge="1">
          <mxGeometry x="494.75" y="389" width="50" height="50" as="geometry">
            <mxPoint x="514.75" y="449" as="sourcePoint" />
            <mxPoint x="934.75" y="389" as="targetPoint" />
          </mxGeometry>
        </mxCell>
        <mxCell id="SQ0sSNVoyY-ed8Ng0SWT-175" value="&lt;div&gt;Codice&lt;/div&gt;&lt;div&gt;articolo&lt;/div&gt;&lt;div&gt;fornitore&lt;br&gt;&lt;/div&gt;" style="text;html=1;strokeColor=none;fillColor=none;align=center;verticalAlign=middle;whiteSpace=wrap;rounded=0;fontFamily=Roboto;fontSource=https%3A%2F%2Ffonts.googleapis.com%2Fcss%3Ffamily%3DRoboto;" parent="oSWGqV9o0AvBEBVBbeev-1" vertex="1">
          <mxGeometry x="494.75" y="359" width="40" height="50" as="geometry" />
        </mxCell>
        <mxCell id="SQ0sSNVoyY-ed8Ng0SWT-181" value="" style="ellipse;whiteSpace=wrap;html=1;aspect=fixed;fontFamily=Roboto;fontSource=https%3A%2F%2Ffonts.googleapis.com%2Fcss%3Ffamily%3DRoboto;" parent="oSWGqV9o0AvBEBVBbeev-1" vertex="1">
          <mxGeometry x="564.75" y="409" width="20" height="20" as="geometry" />
        </mxCell>
        <mxCell id="SQ0sSNVoyY-ed8Ng0SWT-182" value="" style="endArrow=none;html=1;entryX=0.5;entryY=1;entryDx=0;entryDy=0;fontFamily=Roboto;fontSource=https%3A%2F%2Ffonts.googleapis.com%2Fcss%3Ffamily%3DRoboto;" parent="oSWGqV9o0AvBEBVBbeev-1" target="SQ0sSNVoyY-ed8Ng0SWT-181" edge="1">
          <mxGeometry x="554.75" y="383" width="50" height="50" as="geometry">
            <mxPoint x="574.75" y="453" as="sourcePoint" />
            <mxPoint x="994.75" y="383" as="targetPoint" />
          </mxGeometry>
        </mxCell>
        <mxCell id="ZC6GJjPHj74emAYdj6tf-2" value="" style="endArrow=none;html=1;fontFamily=Roboto;fontSource=https%3A%2F%2Ffonts.googleapis.com%2Fcss%3Ffamily%3DRoboto;" parent="oSWGqV9o0AvBEBVBbeev-1" edge="1">
          <mxGeometry x="300" y="520" width="50" height="50" as="geometry">
            <mxPoint x="389.8299999999999" y="590" as="sourcePoint" />
            <mxPoint x="389.8299999999999" y="560" as="targetPoint" />
          </mxGeometry>
        </mxCell>
        <mxCell id="ZC6GJjPHj74emAYdj6tf-3" value="" style="ellipse;whiteSpace=wrap;html=1;aspect=fixed;fontFamily=Roboto;fontSource=https%3A%2F%2Ffonts.googleapis.com%2Fcss%3Ffamily%3DRoboto;" parent="oSWGqV9o0AvBEBVBbeev-1" vertex="1">
          <mxGeometry x="380" y="540" width="20" height="20" as="geometry" />
        </mxCell>
        <mxCell id="ZC6GJjPHj74emAYdj6tf-4" value="&lt;div&gt;Recapiti&lt;/div&gt;&lt;div&gt;telefonici&lt;br&gt;&lt;/div&gt;" style="text;html=1;strokeColor=none;fillColor=none;align=center;verticalAlign=middle;whiteSpace=wrap;rounded=0;fontFamily=Roboto;fontSource=https%3A%2F%2Ffonts.googleapis.com%2Fcss%3Ffamily%3DRoboto;" parent="oSWGqV9o0AvBEBVBbeev-1" vertex="1">
          <mxGeometry x="370" y="510" width="40" height="30" as="geometry" />
        </mxCell>
        <mxCell id="SQ0sSNVoyY-ed8Ng0SWT-92" value="" style="endArrow=none;html=1;fontFamily=Roboto;fontSource=https%3A%2F%2Ffonts.googleapis.com%2Fcss%3Ffamily%3DRoboto;" parent="oSWGqV9o0AvBEBVBbeev-1" edge="1">
          <mxGeometry x="250" y="530" width="50" height="50" as="geometry">
            <mxPoint x="339.8299999999999" y="600" as="sourcePoint" />
            <mxPoint x="339.8299999999999" y="570" as="targetPoint" />
          </mxGeometry>
        </mxCell>
        <mxCell id="SQ0sSNVoyY-ed8Ng0SWT-93" value="" style="ellipse;whiteSpace=wrap;html=1;aspect=fixed;fontFamily=Roboto;fontSource=https%3A%2F%2Ffonts.googleapis.com%2Fcss%3Ffamily%3DRoboto;" parent="oSWGqV9o0AvBEBVBbeev-1" vertex="1">
          <mxGeometry x="330" y="550" width="20" height="20" as="geometry" />
        </mxCell>
        <mxCell id="SQ0sSNVoyY-ed8Ng0SWT-94" value="Indirizzo" style="text;html=1;strokeColor=none;fillColor=none;align=center;verticalAlign=middle;whiteSpace=wrap;rounded=0;fontFamily=Roboto;fontSource=https%3A%2F%2Ffonts.googleapis.com%2Fcss%3Ffamily%3DRoboto;" parent="oSWGqV9o0AvBEBVBbeev-1" vertex="1">
          <mxGeometry x="320" y="530" width="40" height="20" as="geometry" />
        </mxCell>
        <mxCell id="SQ0sSNVoyY-ed8Ng0SWT-104" value="" style="group;fontFamily=Roboto;fontSource=https%3A%2F%2Ffonts.googleapis.com%2Fcss%3Ffamily%3DRoboto;" parent="oSWGqV9o0AvBEBVBbeev-1" connectable="0" vertex="1">
          <mxGeometry x="270" y="520" width="40" height="70" as="geometry" />
        </mxCell>
        <mxCell id="SQ0sSNVoyY-ed8Ng0SWT-105" value="Partita IVA" style="text;html=1;strokeColor=none;fillColor=none;align=center;verticalAlign=middle;whiteSpace=wrap;rounded=0;fontFamily=Roboto;fontSource=https%3A%2F%2Ffonts.googleapis.com%2Fcss%3Ffamily%3DRoboto;" parent="SQ0sSNVoyY-ed8Ng0SWT-104" vertex="1">
          <mxGeometry y="-10" width="40" height="30" as="geometry" />
        </mxCell>
        <mxCell id="SQ0sSNVoyY-ed8Ng0SWT-106" value="" style="ellipse;whiteSpace=wrap;html=1;aspect=fixed;fontFamily=Roboto;fontSource=https%3A%2F%2Ffonts.googleapis.com%2Fcss%3Ffamily%3DRoboto;fillColor=#000000;" parent="SQ0sSNVoyY-ed8Ng0SWT-104" vertex="1">
          <mxGeometry x="10" y="20" width="20" height="20" as="geometry" />
        </mxCell>
        <mxCell id="SQ0sSNVoyY-ed8Ng0SWT-189" value="" style="endArrow=none;html=1;entryX=0.5;entryY=1;entryDx=0;entryDy=0;fontFamily=Roboto;fontSource=https%3A%2F%2Ffonts.googleapis.com%2Fcss%3Ffamily%3DRoboto;" parent="oSWGqV9o0AvBEBVBbeev-1" target="SQ0sSNVoyY-ed8Ng0SWT-187" edge="1">
          <mxGeometry x="504.75" y="459.5" width="50" height="50" as="geometry">
            <mxPoint x="574.75" y="449.5000000000001" as="sourcePoint" />
            <mxPoint x="114.75" y="509.5" as="targetPoint" />
          </mxGeometry>
        </mxCell>
        <mxCell id="SQ0sSNVoyY-ed8Ng0SWT-184" value="" style="ellipse;whiteSpace=wrap;html=1;aspect=fixed;fontFamily=Roboto;fontSource=https%3A%2F%2Ffonts.googleapis.com%2Fcss%3Ffamily%3DRoboto;rotation=-180;" parent="oSWGqV9o0AvBEBVBbeev-1" vertex="1">
          <mxGeometry x="504.75" y="469" width="20" height="20" as="geometry" />
        </mxCell>
        <mxCell id="SQ0sSNVoyY-ed8Ng0SWT-107" value="" style="endArrow=none;html=1;exitX=0.475;exitY=0;exitDx=0;exitDy=0;entryX=0.5;entryY=1;entryDx=0;entryDy=0;exitPerimeter=0;fontFamily=Roboto;fontSource=https%3A%2F%2Ffonts.googleapis.com%2Fcss%3Ffamily%3DRoboto;" parent="oSWGqV9o0AvBEBVBbeev-1" target="SQ0sSNVoyY-ed8Ng0SWT-106" edge="1">
          <mxGeometry x="260" y="520" width="50" height="50" as="geometry">
            <mxPoint x="290.0000000000002" y="590" as="sourcePoint" />
            <mxPoint x="313" y="530" as="targetPoint" />
          </mxGeometry>
        </mxCell>
        <mxCell id="SQ0sSNVoyY-ed8Ng0SWT-185" value="&lt;div&gt;Prezzo&lt;/div&gt;&lt;div&gt;unitario&lt;br&gt;&lt;/div&gt;" style="text;html=1;strokeColor=none;fillColor=none;align=center;verticalAlign=middle;whiteSpace=wrap;rounded=0;fontFamily=Roboto;fontSource=https%3A%2F%2Ffonts.googleapis.com%2Fcss%3Ffamily%3DRoboto;rotation=0;" parent="oSWGqV9o0AvBEBVBbeev-1" vertex="1">
          <mxGeometry x="494.75" y="494" width="40" height="20" as="geometry" />
        </mxCell>
        <mxCell id="SQ0sSNVoyY-ed8Ng0SWT-186" value="" style="endArrow=none;html=1;entryX=0.5;entryY=1;entryDx=0;entryDy=0;fontFamily=Roboto;fontSource=https%3A%2F%2Ffonts.googleapis.com%2Fcss%3Ffamily%3DRoboto;" parent="oSWGqV9o0AvBEBVBbeev-1" target="SQ0sSNVoyY-ed8Ng0SWT-184" edge="1">
          <mxGeometry x="444.75" y="459" width="50" height="50" as="geometry">
            <mxPoint x="514.75" y="449.0000000000001" as="sourcePoint" />
            <mxPoint x="54.75" y="509" as="targetPoint" />
          </mxGeometry>
        </mxCell>
        <mxCell id="SQ0sSNVoyY-ed8Ng0SWT-4" value="&lt;div&gt;Data emissione&lt;/div&gt;" style="text;html=1;strokeColor=none;fillColor=none;align=center;verticalAlign=middle;whiteSpace=wrap;rounded=0;fontFamily=Roboto;fontSource=https%3A%2F%2Ffonts.googleapis.com%2Fcss%3Ffamily%3DRoboto;" parent="oSWGqV9o0AvBEBVBbeev-1" vertex="1">
          <mxGeometry x="230" y="364" width="40" height="20" as="geometry" />
        </mxCell>
        <mxCell id="SQ0sSNVoyY-ed8Ng0SWT-9" value="" style="endArrow=none;html=1;fontFamily=Roboto;fontSource=https%3A%2F%2Ffonts.googleapis.com%2Fcss%3Ffamily%3DRoboto;exitX=0.25;exitY=0;exitDx=0;exitDy=0;" parent="oSWGqV9o0AvBEBVBbeev-1" target="SQ0sSNVoyY-ed8Ng0SWT-7" edge="1">
          <mxGeometry x="85" y="370" width="50" height="50" as="geometry">
            <mxPoint x="150" y="430.0000000000001" as="sourcePoint" />
            <mxPoint x="125" y="420" as="targetPoint" />
          </mxGeometry>
        </mxCell>
        <mxCell id="SQ0sSNVoyY-ed8Ng0SWT-10" value="" style="endArrow=none;html=1;exitX=0.75;exitY=0;exitDx=0;exitDy=0;entryX=1;entryY=0.5;entryDx=0;entryDy=0;fontFamily=Roboto;fontSource=https%3A%2F%2Ffonts.googleapis.com%2Fcss%3Ffamily%3DRoboto;" parent="oSWGqV9o0AvBEBVBbeev-1" target="SQ0sSNVoyY-ed8Ng0SWT-5" edge="1">
          <mxGeometry x="125" y="369" width="50" height="50" as="geometry">
            <mxPoint x="250" y="429.0000000000001" as="sourcePoint" />
            <mxPoint x="275" y="414" as="targetPoint" />
          </mxGeometry>
        </mxCell>
        <mxCell id="SQ0sSNVoyY-ed8Ng0SWT-5" value="&lt;span style=&quot;color: rgba(0, 0, 0, 0); font-size: 0px;&quot;&gt;%3CmxGraphModel%3E%3Croot%3E%3CmxCell%20id%3D%220%22%2F%3E%3CmxCell%20id%3D%221%22%20parent%3D%220%22%2F%3E%3CmxCell%20id%3D%222%22%20value%3D%22%22%20style%3D%22group%3BfontFamily%3DRoboto%3BfontSource%3Dhttps%253A%252F%252Ffonts.googleapis.com%252Fcss%253Ffamily%253DRoboto%3B%22%20connectable%3D%220%22%20vertex%3D%221%22%20parent%3D%221%22%3E%3CmxGeometry%20x%3D%2250%22%20y%3D%22450%22%20width%3D%22130%22%20height%3D%22140%22%20as%3D%22geometry%22%2F%3E%3C%2FmxCell%3E%3CmxCell%20id%3D%223%22%20value%3D%22Ordine%22%20style%3D%22rounded%3D0%3BwhiteSpace%3Dwrap%3Bhtml%3D1%3BfontFamily%3DRoboto%3BfontSource%3Dhttps%253A%252F%252Ffonts.googleapis.com%252Fcss%253Ffamily%253DRoboto%3BfillColor%3D%23f8cecc%3BstrokeColor%3D%23b85450%3BgradientColor%3D%23ea6b66%3B%22%20vertex%3D%221%22%20parent%3D%222%22%3E%3CmxGeometry%20x%3D%2240%22%20y%3D%2280%22%20width%3D%22120%22%20height%3D%2260%22%20as%3D%22geometry%22%2F%3E%3C%2FmxCell%3E%3CmxCell%20id%3D%224%22%20value%3D%22%22%20style%3D%22group%3BfontFamily%3DRoboto%3BfontSource%3Dhttps%253A%252F%252Ffonts.googleapis.com%252Fcss%253Ffamily%253DRoboto%3B%22%20connectable%3D%220%22%20vertex%3D%221%22%20parent%3D%222%22%3E%3CmxGeometry%20x%3D%2290%22%20width%3D%2240%22%20height%3D%2280%22%20as%3D%22geometry%22%2F%3E%3C%2FmxCell%3E%3CmxCell%20id%3D%225%22%20value%3D%22%22%20style%3D%22ellipse%3BwhiteSpace%3Dwrap%3Bhtml%3D1%3Baspect%3Dfixed%3BfontFamily%3DRoboto%3BfontSource%3Dhttps%253A%252F%252Ffonts.googleapis.com%252Fcss%253Ffamily%253DRoboto%3B%22%20vertex%3D%221%22%20parent%3D%224%22%3E%3CmxGeometry%20x%3D%2230%22%20y%3D%2230%22%20width%3D%2220%22%20height%3D%2220%22%20as%3D%22geometry%22%2F%3E%3C%2FmxCell%3E%3CmxCell%20id%3D%226%22%20value%3D%22%26lt%3Bdiv%26gt%3BData%20emissione%26lt%3B%2Fdiv%26gt%3B%22%20style%3D%22text%3Bhtml%3D1%3BstrokeColor%3Dnone%3BfillColor%3Dnone%3Balign%3Dcenter%3BverticalAlign%3Dmiddle%3BwhiteSpace%3Dwrap%3Brounded%3D0%3BfontFamily%3DRoboto%3BfontSource%3Dhttps%253A%252F%252Ffonts.googleapis.com%252Fcss%253Ffamily%253DRoboto%3B%22%20vertex%3D%221%22%20parent%3D%224%22%3E%3CmxGeometry%20width%3D%2240%22%20height%3D%2220%22%20as%3D%22geometry%22%2F%3E%3C%2FmxCell%3E%3CmxCell%20id%3D%227%22%20value%3D%22%22%20style%3D%22group%3BfontFamily%3DRoboto%3BfontSource%3Dhttps%253A%252F%252Ffonts.googleapis.com%252Fcss%253Ffamily%253DRoboto%3B%22%20connectable%3D%220%22%20vertex%3D%221%22%20parent%3D%222%22%3E%3CmxGeometry%20x%3D%2210%22%20y%3D%2210%22%20width%3D%2260%22%20height%3D%2270%22%20as%3D%22geometry%22%2F%3E%3C%2FmxCell%3E%3CmxCell%20id%3D%228%22%20value%3D%22%22%20style%3D%22ellipse%3BfontFamily%3DRoboto%3BfontSource%3Dhttps%253A%252F%252Ffonts.googleapis.com%252Fcss%253Ffamily%253DRoboto%3BfillColor%3D%23000000%3B%22%20vertex%3D%221%22%20parent%3D%227%22%3E%3CmxGeometry%20x%3D%2210%22%20y%3D%2220%22%20width%3D%2220%22%20height%3D%2220%22%20as%3D%22geometry%22%2F%3E%3C%2FmxCell%3E%3CmxCell%20id%3D%229%22%20value%3D%22Codice%20ordine%22%20style%3D%22text%3Bhtml%3D1%3BstrokeColor%3Dnone%3BfillColor%3Dnone%3Balign%3Dcenter%3BverticalAlign%3Dmiddle%3BwhiteSpace%3Dwrap%3Brounded%3D0%3BfontFamily%3DRoboto%3BfontSource%3Dhttps%253A%252F%252Ffonts.googleapis.com%252Fcss%253Ffamily%253DRoboto%3B%22%20vertex%3D%221%22%20parent%3D%227%22%3E%3CmxGeometry%20x%3D%22-20%22%20y%3D%22-10%22%20width%3D%2280%22%20height%3D%2220%22%20as%3D%22geometry%22%2F%3E%3C%2FmxCell%3E%3CmxCell%20id%3D%2210%22%20value%3D%22%22%20style%3D%22endArrow%3Dnone%3Bhtml%3D1%3BfontFamily%3DRoboto%3BfontSource%3Dhttps%253A%252F%252Ffonts.googleapis.com%252Fcss%253Ffamily%253DRoboto%3BexitX%3D0.25%3BexitY%3D0%3BexitDx%3D0%3BexitDy%3D0%3B%22%20edge%3D%221%22%20parent%3D%222%22%20source%3D%223%22%20target%3D%228%22%3E%3CmxGeometry%20width%3D%2250%22%20height%3D%2250%22%20relative%3D%221%22%20as%3D%22geometry%22%3E%3CmxPoint%20x%3D%2240%22%20y%3D%2280%22%20as%3D%22sourcePoint%22%2F%3E%3CmxPoint%20x%3D%2240%22%20y%3D%2250%22%20as%3D%22targetPoint%22%2F%3E%3C%2FmxGeometry%3E%3C%2FmxCell%3E%3CmxCell%20id%3D%2211%22%20value%3D%22%22%20style%3D%22endArrow%3Dnone%3Bhtml%3D1%3BfontFamily%3DRoboto%3BfontSource%3Dhttps%253A%252F%252Ffonts.googleapis.com%252Fcss%253Ffamily%253DRoboto%3BexitX%3D0.75%3BexitY%3D0%3BexitDx%3D0%3BexitDy%3D0%3BentryX%3D0.5%3BentryY%3D1%3BentryDx%3D0%3BentryDy%3D0%3B%22%20edge%3D%221%22%20parent%3D%222%22%20source%3D%223%22%20target%3D%225%22%3E%3CmxGeometry%20x%3D%22100%22%20y%3D%2210%22%20width%3D%2250%22%20height%3D%2250%22%20as%3D%22geometry%22%3E%3CmxPoint%20x%3D%22120%22%20y%3D%2280%22%20as%3D%22sourcePoint%22%2F%3E%3CmxPoint%20x%3D%22123%22%20y%3D%2246%22%20as%3D%22targetPoint%22%2F%3E%3CArray%20as%3D%22points%22%2F%3E%3C%2FmxGeometry%3E%3C%2FmxCell%3E%3C%2Froot%3E%3C%2FmxGraphModel%3E&lt;/span&gt;" style="ellipse;whiteSpace=wrap;html=1;aspect=fixed;fontFamily=Roboto;fontSource=https%3A%2F%2Ffonts.googleapis.com%2Fcss%3Ffamily%3DRoboto;rotation=90;" parent="oSWGqV9o0AvBEBVBbeev-1" vertex="1">
          <mxGeometry x="240" y="389" width="20" height="20" as="geometry" />
        </mxCell>
        <mxCell id="SQ0sSNVoyY-ed8Ng0SWT-7" value="" style="ellipse;fontFamily=Roboto;fontSource=https%3A%2F%2Ffonts.googleapis.com%2Fcss%3Ffamily%3DRoboto;fillColor=#000000;" parent="oSWGqV9o0AvBEBVBbeev-1" vertex="1">
          <mxGeometry x="140" y="390" width="20" height="20" as="geometry" />
        </mxCell>
        <mxCell id="SQ0sSNVoyY-ed8Ng0SWT-43" value="" style="ellipse;whiteSpace=wrap;html=1;aspect=fixed;fontFamily=Roboto;fontSource=https%3A%2F%2Ffonts.googleapis.com%2Fcss%3Ffamily%3DRoboto;rotation=-180;" parent="oSWGqV9o0AvBEBVBbeev-1" vertex="1">
          <mxGeometry x="150" y="290" width="20" height="20" as="geometry" />
        </mxCell>
        <mxCell id="SQ0sSNVoyY-ed8Ng0SWT-45" value="&lt;div&gt;Data emissione&lt;/div&gt;" style="text;html=1;strokeColor=none;fillColor=none;align=center;verticalAlign=middle;whiteSpace=wrap;rounded=0;fontFamily=Roboto;fontSource=https%3A%2F%2Ffonts.googleapis.com%2Fcss%3Ffamily%3DRoboto;rotation=0;" parent="oSWGqV9o0AvBEBVBbeev-1" vertex="1">
          <mxGeometry x="140" y="315" width="40" height="20" as="geometry" />
        </mxCell>
        <mxCell id="SQ0sSNVoyY-ed8Ng0SWT-44" value="" style="endArrow=none;html=1;entryX=0.5;entryY=1;entryDx=0;entryDy=0;fontFamily=Roboto;fontSource=https%3A%2F%2Ffonts.googleapis.com%2Fcss%3Ffamily%3DRoboto;" parent="oSWGqV9o0AvBEBVBbeev-1" target="SQ0sSNVoyY-ed8Ng0SWT-43" edge="1">
          <mxGeometry x="90" y="280" width="50" height="50" as="geometry">
            <mxPoint x="160" y="270.0000000000001" as="sourcePoint" />
            <mxPoint x="-300" y="330" as="targetPoint" />
          </mxGeometry>
        </mxCell>
        <mxCell id="SQ0sSNVoyY-ed8Ng0SWT-151" value="" style="ellipse;whiteSpace=wrap;html=1;aspect=fixed;fontFamily=Roboto;fontSource=https%3A%2F%2Ffonts.googleapis.com%2Fcss%3Ffamily%3DRoboto;rotation=-180;" parent="oSWGqV9o0AvBEBVBbeev-1" vertex="1">
          <mxGeometry x="399.5" y="210" width="20" height="20" as="geometry" />
        </mxCell>
        <mxCell id="SQ0sSNVoyY-ed8Ng0SWT-152" value="" style="endArrow=none;html=1;fontFamily=Roboto;fontSource=https%3A%2F%2Ffonts.googleapis.com%2Fcss%3Ffamily%3DRoboto;entryX=0.5;entryY=0;entryDx=0;entryDy=0;endSize=6;startSize=6;arcSize=20;" parent="oSWGqV9o0AvBEBVBbeev-1" target="SQ0sSNVoyY-ed8Ng0SWT-151" edge="1">
          <mxGeometry width="50" height="50" relative="1" as="geometry">
            <mxPoint x="409.5" y="264" as="sourcePoint" />
            <mxPoint x="499.5" y="250" as="targetPoint" />
          </mxGeometry>
        </mxCell>
        <mxCell id="SQ0sSNVoyY-ed8Ng0SWT-147" value="" style="ellipse;whiteSpace=wrap;html=1;aspect=fixed;fontFamily=Roboto;fontSource=https%3A%2F%2Ffonts.googleapis.com%2Fcss%3Ffamily%3DRoboto;rotation=-180;" parent="oSWGqV9o0AvBEBVBbeev-1" vertex="1">
          <mxGeometry x="339.5" y="210" width="20" height="20" as="geometry" />
        </mxCell>
        <mxCell id="SQ0sSNVoyY-ed8Ng0SWT-148" value="" style="endArrow=none;html=1;fontFamily=Roboto;fontSource=https%3A%2F%2Ffonts.googleapis.com%2Fcss%3Ffamily%3DRoboto;entryX=0.5;entryY=0;entryDx=0;entryDy=0;endSize=6;startSize=6;arcSize=20;" parent="oSWGqV9o0AvBEBVBbeev-1" target="SQ0sSNVoyY-ed8Ng0SWT-147" edge="1">
          <mxGeometry width="50" height="50" relative="1" as="geometry">
            <mxPoint x="349.5" y="264" as="sourcePoint" />
            <mxPoint x="439.5" y="250" as="targetPoint" />
          </mxGeometry>
        </mxCell>
        <mxCell id="SQ0sSNVoyY-ed8Ng0SWT-31" value="" style="ellipse;whiteSpace=wrap;html=1;aspect=fixed;fontFamily=Roboto;fontSource=https%3A%2F%2Ffonts.googleapis.com%2Fcss%3Ffamily%3DRoboto;" parent="oSWGqV9o0AvBEBVBbeev-1" vertex="1">
          <mxGeometry x="510" y="30" width="20" height="20" as="geometry" />
        </mxCell>
        <mxCell id="SQ0sSNVoyY-ed8Ng0SWT-32" value="" style="endArrow=none;html=1;entryX=0.5;entryY=1;entryDx=0;entryDy=0;fontFamily=Roboto;fontSource=https%3A%2F%2Ffonts.googleapis.com%2Fcss%3Ffamily%3DRoboto;exitX=0.833;exitY=0;exitDx=0;exitDy=0;exitPerimeter=0;" parent="oSWGqV9o0AvBEBVBbeev-1" source="SQ0sSNVoyY-ed8Ng0SWT-19" target="SQ0sSNVoyY-ed8Ng0SWT-31" edge="1">
          <mxGeometry x="580" y="30" width="50" height="50" as="geometry">
            <mxPoint x="588" y="100" as="sourcePoint" />
            <mxPoint x="1020" y="30" as="targetPoint" />
          </mxGeometry>
        </mxCell>
        <mxCell id="SQ0sSNVoyY-ed8Ng0SWT-33" value="&lt;font style=&quot;font-size: 12px;&quot;&gt;Cognome&lt;/font&gt;" style="text;html=1;strokeColor=none;fillColor=none;align=center;verticalAlign=middle;whiteSpace=wrap;rounded=0;fontFamily=Roboto;fontSource=https%3A%2F%2Ffonts.googleapis.com%2Fcss%3Ffamily%3DRoboto;fontSize=12;" parent="oSWGqV9o0AvBEBVBbeev-1" vertex="1">
          <mxGeometry x="500" y="10" width="40" height="20" as="geometry" />
        </mxCell>
        <mxCell id="SQ0sSNVoyY-ed8Ng0SWT-34" value="" style="endArrow=none;html=1;exitX=0.5;exitY=0;exitDx=0;exitDy=0;entryX=0.5;entryY=1;entryDx=0;entryDy=0;fontFamily=Roboto;fontSource=https%3A%2F%2Ffonts.googleapis.com%2Fcss%3Ffamily%3DRoboto;" parent="oSWGqV9o0AvBEBVBbeev-1" source="SQ0sSNVoyY-ed8Ng0SWT-19" target="SQ0sSNVoyY-ed8Ng0SWT-35" edge="1">
          <mxGeometry x="528" y="20" width="50" height="50" as="geometry">
            <mxPoint x="548" y="90" as="sourcePoint" />
            <mxPoint x="548" y="60" as="targetPoint" />
          </mxGeometry>
        </mxCell>
        <mxCell id="SQ0sSNVoyY-ed8Ng0SWT-35" value="" style="ellipse;fontFamily=Roboto;fontSource=https%3A%2F%2Ffonts.googleapis.com%2Fcss%3Ffamily%3DRoboto;fillColor=#000000;" parent="oSWGqV9o0AvBEBVBbeev-1" vertex="1">
          <mxGeometry x="470" y="50" width="20" height="20" as="geometry" />
        </mxCell>
        <mxCell id="SQ0sSNVoyY-ed8Ng0SWT-36" value="C.F." style="text;html=1;strokeColor=none;fillColor=none;align=center;verticalAlign=middle;whiteSpace=wrap;rounded=0;fontFamily=Roboto;fontSource=https%3A%2F%2Ffonts.googleapis.com%2Fcss%3Ffamily%3DRoboto;" parent="oSWGqV9o0AvBEBVBbeev-1" vertex="1">
          <mxGeometry x="460" y="30" width="40" height="20" as="geometry" />
        </mxCell>
        <mxCell id="SQ0sSNVoyY-ed8Ng0SWT-37" value="" style="ellipse;whiteSpace=wrap;html=1;aspect=fixed;fontFamily=Roboto;fontSource=https%3A%2F%2Ffonts.googleapis.com%2Fcss%3Ffamily%3DRoboto;" parent="oSWGqV9o0AvBEBVBbeev-1" vertex="1">
          <mxGeometry x="430" y="30" width="20" height="20" as="geometry" />
        </mxCell>
        <mxCell id="SQ0sSNVoyY-ed8Ng0SWT-38" value="" style="endArrow=none;html=1;entryX=0.5;entryY=1;entryDx=0;entryDy=0;fontFamily=Roboto;fontSource=https%3A%2F%2Ffonts.googleapis.com%2Fcss%3Ffamily%3DRoboto;exitX=0.167;exitY=0;exitDx=0;exitDy=0;exitPerimeter=0;" parent="oSWGqV9o0AvBEBVBbeev-1" source="SQ0sSNVoyY-ed8Ng0SWT-19" target="SQ0sSNVoyY-ed8Ng0SWT-37" edge="1">
          <mxGeometry x="418" y="25" width="50" height="50" as="geometry">
            <mxPoint x="508" y="90" as="sourcePoint" />
            <mxPoint x="858" y="25" as="targetPoint" />
          </mxGeometry>
        </mxCell>
        <mxCell id="SQ0sSNVoyY-ed8Ng0SWT-39" value="Nome" style="text;html=1;strokeColor=none;fillColor=none;align=center;verticalAlign=middle;whiteSpace=wrap;rounded=0;fontFamily=Roboto;fontSource=https%3A%2F%2Ffonts.googleapis.com%2Fcss%3Ffamily%3DRoboto;fontSize=12;" parent="oSWGqV9o0AvBEBVBbeev-1" vertex="1">
          <mxGeometry x="420" y="10" width="40" height="20" as="geometry" />
        </mxCell>
        <mxCell id="SQ0sSNVoyY-ed8Ng0SWT-109" value="" style="group;fontFamily=Roboto;fontSource=https%3A%2F%2Ffonts.googleapis.com%2Fcss%3Ffamily%3DRoboto;" parent="oSWGqV9o0AvBEBVBbeev-1" connectable="0" vertex="1">
          <mxGeometry x="140" y="20" width="40" height="70" as="geometry" />
        </mxCell>
        <mxCell id="SQ0sSNVoyY-ed8Ng0SWT-110" value="" style="endArrow=none;html=1;fontFamily=Roboto;fontSource=https%3A%2F%2Ffonts.googleapis.com%2Fcss%3Ffamily%3DRoboto;" parent="SQ0sSNVoyY-ed8Ng0SWT-109" edge="1">
          <mxGeometry width="50" height="50" relative="1" as="geometry">
            <mxPoint x="20" y="70" as="sourcePoint" />
            <mxPoint x="20" y="40" as="targetPoint" />
          </mxGeometry>
        </mxCell>
        <mxCell id="SQ0sSNVoyY-ed8Ng0SWT-111" value="" style="ellipse;fontFamily=Roboto;fontSource=https%3A%2F%2Ffonts.googleapis.com%2Fcss%3Ffamily%3DRoboto;fillColor=#000000;" parent="SQ0sSNVoyY-ed8Ng0SWT-109" vertex="1">
          <mxGeometry x="10" y="20" width="20" height="20" as="geometry" />
        </mxCell>
        <mxCell id="SQ0sSNVoyY-ed8Ng0SWT-112" value="Codice" style="text;html=1;strokeColor=none;fillColor=none;align=center;verticalAlign=middle;whiteSpace=wrap;rounded=0;fontFamily=Roboto;fontSource=https%3A%2F%2Ffonts.googleapis.com%2Fcss%3Ffamily%3DRoboto;" parent="SQ0sSNVoyY-ed8Ng0SWT-109" vertex="1">
          <mxGeometry width="40" height="20" as="geometry" />
        </mxCell>
        <mxCell id="SQ0sSNVoyY-ed8Ng0SWT-113" value="" style="group;fontFamily=Roboto;fontSource=https%3A%2F%2Ffonts.googleapis.com%2Fcss%3Ffamily%3DRoboto;" parent="oSWGqV9o0AvBEBVBbeev-1" connectable="0" vertex="1">
          <mxGeometry x="220" y="20" width="40" height="70" as="geometry" />
        </mxCell>
        <mxCell id="SQ0sSNVoyY-ed8Ng0SWT-114" value="" style="ellipse;whiteSpace=wrap;html=1;aspect=fixed;fontFamily=Roboto;fontSource=https%3A%2F%2Ffonts.googleapis.com%2Fcss%3Ffamily%3DRoboto;" parent="SQ0sSNVoyY-ed8Ng0SWT-113" vertex="1">
          <mxGeometry x="10" y="20" width="20" height="20" as="geometry" />
        </mxCell>
        <mxCell id="SQ0sSNVoyY-ed8Ng0SWT-115" value="" style="endArrow=none;html=1;entryX=0.5;entryY=1;entryDx=0;entryDy=0;fontFamily=Roboto;fontSource=https%3A%2F%2Ffonts.googleapis.com%2Fcss%3Ffamily%3DRoboto;" parent="SQ0sSNVoyY-ed8Ng0SWT-113" target="SQ0sSNVoyY-ed8Ng0SWT-114" edge="1">
          <mxGeometry width="50" height="50" relative="1" as="geometry">
            <mxPoint x="20" y="70" as="sourcePoint" />
            <mxPoint x="440" as="targetPoint" />
          </mxGeometry>
        </mxCell>
        <mxCell id="SQ0sSNVoyY-ed8Ng0SWT-116" value="Descrizione" style="text;html=1;strokeColor=none;fillColor=none;align=center;verticalAlign=middle;whiteSpace=wrap;rounded=0;fontFamily=Roboto;fontSource=https%3A%2F%2Ffonts.googleapis.com%2Fcss%3Ffamily%3DRoboto;" parent="SQ0sSNVoyY-ed8Ng0SWT-113" vertex="1">
          <mxGeometry width="40" height="20" as="geometry" />
        </mxCell>
        <mxCell id="SQ0sSNVoyY-ed8Ng0SWT-11" value="Gestisce" style="shape=rhombus;perimeter=rhombusPerimeter;whiteSpace=wrap;html=1;align=center;fontFamily=Roboto;fontSource=https%3A%2F%2Ffonts.googleapis.com%2Fcss%3Ffamily%3DRoboto;gradientColor=#ffd966;fillColor=#fff2cc;strokeColor=#d6b656;" parent="oSWGqV9o0AvBEBVBbeev-1" vertex="1">
          <mxGeometry x="300" y="80" width="80" height="40" as="geometry" />
        </mxCell>
        <mxCell id="SQ0sSNVoyY-ed8Ng0SWT-12" value="" style="endArrow=none;html=1;exitX=1;exitY=0.5;exitDx=0;exitDy=0;entryX=0;entryY=0.5;entryDx=0;entryDy=0;fontFamily=Roboto;fontSource=https%3A%2F%2Ffonts.googleapis.com%2Fcss%3Ffamily%3DRoboto;" parent="oSWGqV9o0AvBEBVBbeev-1" source="SQ0sSNVoyY-ed8Ng0SWT-108" target="SQ0sSNVoyY-ed8Ng0SWT-11" edge="1">
          <mxGeometry width="50" height="50" relative="1" as="geometry">
            <mxPoint x="262" y="180.76" as="sourcePoint" />
            <mxPoint x="312" y="170.76" as="targetPoint" />
          </mxGeometry>
        </mxCell>
        <mxCell id="SQ0sSNVoyY-ed8Ng0SWT-13" value="(1,1)" style="text;html=1;strokeColor=none;fillColor=none;align=center;verticalAlign=middle;whiteSpace=wrap;rounded=0;fontFamily=Roboto;fontSource=https%3A%2F%2Ffonts.googleapis.com%2Fcss%3Ffamily%3DRoboto;" parent="oSWGqV9o0AvBEBVBbeev-1" vertex="1">
          <mxGeometry x="260" y="80" width="40" height="20" as="geometry" />
        </mxCell>
        <mxCell id="SQ0sSNVoyY-ed8Ng0SWT-14" value="(1,N)" style="text;html=1;strokeColor=none;fillColor=none;align=center;verticalAlign=middle;whiteSpace=wrap;rounded=0;fontFamily=Roboto;fontSource=https%3A%2F%2Ffonts.googleapis.com%2Fcss%3Ffamily%3DRoboto;" parent="oSWGqV9o0AvBEBVBbeev-1" vertex="1">
          <mxGeometry x="380" y="80" width="40" height="20" as="geometry" />
        </mxCell>
        <mxCell id="SQ0sSNVoyY-ed8Ng0SWT-15" value="Formula" style="shape=rhombus;perimeter=rhombusPerimeter;whiteSpace=wrap;html=1;align=center;fontFamily=Roboto;fontSource=https%3A%2F%2Ffonts.googleapis.com%2Fcss%3Ffamily%3DRoboto;gradientColor=#ffd966;fillColor=#fff2cc;strokeColor=#d6b656;" parent="oSWGqV9o0AvBEBVBbeev-1" vertex="1">
          <mxGeometry x="160" y="160" width="80" height="40" as="geometry" />
        </mxCell>
        <mxCell id="SQ0sSNVoyY-ed8Ng0SWT-16" value="" style="line;strokeWidth=1;rotatable=0;dashed=0;labelPosition=right;align=left;verticalAlign=middle;spacingTop=0;spacingLeft=6;points=[];portConstraint=eastwest;fontFamily=Roboto;fontSource=https%3A%2F%2Ffonts.googleapis.com%2Fcss%3Ffamily%3DRoboto;" parent="oSWGqV9o0AvBEBVBbeev-1" vertex="1">
          <mxGeometry x="152" y="213.5" width="140" as="geometry" />
        </mxCell>
        <mxCell id="SQ0sSNVoyY-ed8Ng0SWT-17" value="" style="endArrow=none;html=1;rounded=0;entryX=0.5;entryY=0;entryDx=0;entryDy=0;fontFamily=Roboto;fontSource=https%3A%2F%2Ffonts.googleapis.com%2Fcss%3Ffamily%3DRoboto;exitX=0.5;exitY=1;exitDx=0;exitDy=0;" parent="oSWGqV9o0AvBEBVBbeev-1" source="SQ0sSNVoyY-ed8Ng0SWT-108" target="SQ0sSNVoyY-ed8Ng0SWT-15" edge="1">
          <mxGeometry relative="1" as="geometry">
            <mxPoint x="202" y="176.5" as="sourcePoint" />
            <mxPoint x="252" y="283.5" as="targetPoint" />
          </mxGeometry>
        </mxCell>
        <mxCell id="SQ0sSNVoyY-ed8Ng0SWT-18" style="edgeStyle=orthogonalEdgeStyle;rounded=0;orthogonalLoop=1;jettySize=auto;html=1;exitX=0;exitY=0.5;exitDx=0;exitDy=0;entryX=1;entryY=0.5;entryDx=0;entryDy=0;endArrow=none;endFill=0;fontFamily=Roboto;fontSource=https%3A%2F%2Ffonts.googleapis.com%2Fcss%3Ffamily%3DRoboto;" parent="oSWGqV9o0AvBEBVBbeev-1" source="SQ0sSNVoyY-ed8Ng0SWT-19" target="SQ0sSNVoyY-ed8Ng0SWT-11" edge="1">
          <mxGeometry relative="1" as="geometry" />
        </mxCell>
        <mxCell id="SQ0sSNVoyY-ed8Ng0SWT-19" value="Responsabile" style="rounded=0;whiteSpace=wrap;html=1;fontFamily=Roboto;fontSource=https%3A%2F%2Ffonts.googleapis.com%2Fcss%3Ffamily%3DRoboto;fillColor=#f8cecc;strokeColor=#b85450;gradientColor=#ea6b66;" parent="oSWGqV9o0AvBEBVBbeev-1" vertex="1">
          <mxGeometry x="420" y="80" width="120" height="40" as="geometry" />
        </mxCell>
        <mxCell id="SQ0sSNVoyY-ed8Ng0SWT-20" style="rounded=0;orthogonalLoop=1;jettySize=auto;html=1;exitX=0;exitY=0;exitDx=0;exitDy=0;entryX=1;entryY=1;entryDx=0;entryDy=0;endArrow=none;endFill=0;fontFamily=Roboto;fontSource=https%3A%2F%2Ffonts.googleapis.com%2Fcss%3Ffamily%3DRoboto;" parent="oSWGqV9o0AvBEBVBbeev-1" source="SQ0sSNVoyY-ed8Ng0SWT-22" target="SQ0sSNVoyY-ed8Ng0SWT-87" edge="1">
          <mxGeometry relative="1" as="geometry" />
        </mxCell>
        <mxCell id="SQ0sSNVoyY-ed8Ng0SWT-21" style="edgeStyle=none;rounded=0;orthogonalLoop=1;jettySize=auto;html=1;exitX=1;exitY=0;exitDx=0;exitDy=0;entryX=0;entryY=1;entryDx=0;entryDy=0;endArrow=none;endFill=0;fontFamily=Roboto;fontSource=https%3A%2F%2Ffonts.googleapis.com%2Fcss%3Ffamily%3DRoboto;" parent="oSWGqV9o0AvBEBVBbeev-1" source="SQ0sSNVoyY-ed8Ng0SWT-22" target="SQ0sSNVoyY-ed8Ng0SWT-88" edge="1">
          <mxGeometry relative="1" as="geometry" />
        </mxCell>
        <mxCell id="SQ0sSNVoyY-ed8Ng0SWT-22" value="" style="ellipse;whiteSpace=wrap;html=1;rotation=90;fontFamily=Roboto;fontSource=https%3A%2F%2Ffonts.googleapis.com%2Fcss%3Ffamily%3DRoboto;gradientColor=#d5739d;fillColor=#e6d0de;strokeColor=#996185;" parent="oSWGqV9o0AvBEBVBbeev-1" vertex="1">
          <mxGeometry x="590" y="50" width="40" height="60" as="geometry" />
        </mxCell>
        <mxCell id="SQ0sSNVoyY-ed8Ng0SWT-23" value="" style="endArrow=none;html=1;entryX=0.5;entryY=1;entryDx=0;entryDy=0;exitX=1;exitY=0.25;exitDx=0;exitDy=0;fontFamily=Roboto;fontSource=https%3A%2F%2Ffonts.googleapis.com%2Fcss%3Ffamily%3DRoboto;" parent="oSWGqV9o0AvBEBVBbeev-1" target="SQ0sSNVoyY-ed8Ng0SWT-22" edge="1">
          <mxGeometry x="214" y="-293.5" width="50" height="50" as="geometry">
            <mxPoint x="540" y="80" as="sourcePoint" />
            <mxPoint x="269" y="161.5" as="targetPoint" />
          </mxGeometry>
        </mxCell>
        <mxCell id="SQ0sSNVoyY-ed8Ng0SWT-24" value="" style="ellipse;whiteSpace=wrap;html=1;aspect=fixed;rotation=90;fontFamily=Roboto;fontSource=https%3A%2F%2Ffonts.googleapis.com%2Fcss%3Ffamily%3DRoboto;" parent="oSWGqV9o0AvBEBVBbeev-1" vertex="1">
          <mxGeometry x="569" y="110" width="20" height="20" as="geometry" />
        </mxCell>
        <mxCell id="SQ0sSNVoyY-ed8Ng0SWT-25" value="" style="endArrow=none;html=1;entryX=0.5;entryY=1;entryDx=0;entryDy=0;fontFamily=Roboto;fontSource=https%3A%2F%2Ffonts.googleapis.com%2Fcss%3Ffamily%3DRoboto;" parent="oSWGqV9o0AvBEBVBbeev-1" target="SQ0sSNVoyY-ed8Ng0SWT-24" edge="1">
          <mxGeometry x="202" y="-258.5" width="50" height="50" as="geometry">
            <mxPoint x="540" y="120" as="sourcePoint" />
            <mxPoint x="257" y="196.5" as="targetPoint" />
          </mxGeometry>
        </mxCell>
        <mxCell id="SQ0sSNVoyY-ed8Ng0SWT-26" value="&lt;div style=&quot;font-size: 11px&quot;&gt;&lt;font style=&quot;font-size: 11px&quot;&gt;Data di nascita&lt;/font&gt;&lt;/div&gt;" style="text;html=1;strokeColor=none;fillColor=none;align=center;verticalAlign=middle;whiteSpace=wrap;rounded=0;rotation=0;fontFamily=Roboto;fontSource=https%3A%2F%2Ffonts.googleapis.com%2Fcss%3Ffamily%3DRoboto;" parent="oSWGqV9o0AvBEBVBbeev-1" vertex="1">
          <mxGeometry x="582.5" y="110" width="55" height="20" as="geometry" />
        </mxCell>
        <mxCell id="SQ0sSNVoyY-ed8Ng0SWT-27" value="&lt;div style=&quot;font-size: 11px&quot;&gt;&lt;font style=&quot;font-size: 11px&quot;&gt;Luogo di nascita&lt;/font&gt;&lt;/div&gt;" style="text;html=1;strokeColor=none;fillColor=none;align=center;verticalAlign=middle;whiteSpace=wrap;rounded=0;rotation=0;fontFamily=Roboto;fontSource=https%3A%2F%2Ffonts.googleapis.com%2Fcss%3Ffamily%3DRoboto;" parent="oSWGqV9o0AvBEBVBbeev-1" vertex="1">
          <mxGeometry x="582.5" y="70" width="55" height="20" as="geometry" />
        </mxCell>
        <mxCell id="SQ0sSNVoyY-ed8Ng0SWT-28" value="" style="endArrow=none;html=1;rounded=0;entryX=0.5;entryY=0;entryDx=0;entryDy=0;exitX=0.5;exitY=1;exitDx=0;exitDy=0;fontFamily=Roboto;fontSource=https%3A%2F%2Ffonts.googleapis.com%2Fcss%3Ffamily%3DRoboto;" parent="oSWGqV9o0AvBEBVBbeev-1" source="SQ0sSNVoyY-ed8Ng0SWT-15" target="SQ0sSNVoyY-ed8Ng0SWT-41" edge="1">
          <mxGeometry relative="1" as="geometry">
            <mxPoint x="222" y="393.5" as="sourcePoint" />
            <mxPoint x="362" y="353.5" as="targetPoint" />
          </mxGeometry>
        </mxCell>
        <mxCell id="SQ0sSNVoyY-ed8Ng0SWT-29" value="(1,N)" style="text;html=1;strokeColor=none;fillColor=none;align=center;verticalAlign=middle;whiteSpace=wrap;rounded=0;fontFamily=Roboto;fontSource=https%3A%2F%2Ffonts.googleapis.com%2Fcss%3Ffamily%3DRoboto;" parent="oSWGqV9o0AvBEBVBbeev-1" vertex="1">
          <mxGeometry x="200" y="120" width="40" height="20" as="geometry" />
        </mxCell>
        <mxCell id="SQ0sSNVoyY-ed8Ng0SWT-30" value="(1,1)" style="text;html=1;strokeColor=none;fillColor=none;align=center;verticalAlign=middle;whiteSpace=wrap;rounded=0;rotation=0;fontFamily=Roboto;fontSource=https%3A%2F%2Ffonts.googleapis.com%2Fcss%3Ffamily%3DRoboto;" parent="oSWGqV9o0AvBEBVBbeev-1" vertex="1">
          <mxGeometry x="200" y="200" width="40" height="20" as="geometry" />
        </mxCell>
        <mxCell id="SQ0sSNVoyY-ed8Ng0SWT-40" style="edgeStyle=none;rounded=0;sketch=0;orthogonalLoop=1;jettySize=auto;html=1;exitX=1;exitY=0.5;exitDx=0;exitDy=0;entryX=0;entryY=0.5;entryDx=0;entryDy=0;endArrow=none;endFill=0;fontSize=10;fontFamily=Roboto;fontSource=https%3A%2F%2Ffonts.googleapis.com%2Fcss%3Ffamily%3DRoboto;" parent="oSWGqV9o0AvBEBVBbeev-1" source="SQ0sSNVoyY-ed8Ng0SWT-41" target="SQ0sSNVoyY-ed8Ng0SWT-51" edge="1">
          <mxGeometry relative="1" as="geometry" />
        </mxCell>
        <mxCell id="SQ0sSNVoyY-ed8Ng0SWT-41" value="Richiesta d&#39;acquisto" style="rounded=0;whiteSpace=wrap;html=1;fontFamily=Roboto;fontSource=https%3A%2F%2Ffonts.googleapis.com%2Fcss%3Ffamily%3DRoboto;fillColor=#f8cecc;strokeColor=#b85450;gradientColor=#ea6b66;" parent="oSWGqV9o0AvBEBVBbeev-1" vertex="1">
          <mxGeometry x="140" y="240" width="120" height="40" as="geometry" />
        </mxCell>
        <mxCell id="SQ0sSNVoyY-ed8Ng0SWT-46" value="Articolo" style="rounded=0;whiteSpace=wrap;html=1;fontFamily=Roboto;fontSource=https%3A%2F%2Ffonts.googleapis.com%2Fcss%3Ffamily%3DRoboto;fillColor=#f8cecc;strokeColor=#b85450;gradientColor=#ea6b66;" parent="oSWGqV9o0AvBEBVBbeev-1" vertex="1">
          <mxGeometry x="484.75" y="240" width="120" height="40" as="geometry" />
        </mxCell>
        <mxCell id="SQ0sSNVoyY-ed8Ng0SWT-47" value="" style="endArrow=none;html=1;fontFamily=Roboto;fontSource=https%3A%2F%2Ffonts.googleapis.com%2Fcss%3Ffamily%3DRoboto;exitX=0.5;exitY=0;exitDx=0;exitDy=0;entryX=0.5;entryY=1;entryDx=0;entryDy=0;entryPerimeter=0;" parent="oSWGqV9o0AvBEBVBbeev-1" source="SQ0sSNVoyY-ed8Ng0SWT-46" target="SQ0sSNVoyY-ed8Ng0SWT-48" edge="1">
          <mxGeometry x="402.75" y="145" width="50" height="50" as="geometry">
            <mxPoint x="544.75" y="140" as="sourcePoint" />
            <mxPoint x="544.75" y="160" as="targetPoint" />
          </mxGeometry>
        </mxCell>
        <mxCell id="SQ0sSNVoyY-ed8Ng0SWT-48" value="" style="ellipse;fontFamily=Roboto;fontSource=https%3A%2F%2Ffonts.googleapis.com%2Fcss%3Ffamily%3DRoboto;fillColor=#000000;" parent="oSWGqV9o0AvBEBVBbeev-1" vertex="1">
          <mxGeometry x="534.75" y="210" width="20" height="20" as="geometry" />
        </mxCell>
        <mxCell id="SQ0sSNVoyY-ed8Ng0SWT-49" value="&lt;div&gt;Codice&lt;/div&gt;&lt;div&gt;articolo&lt;/div&gt;" style="text;html=1;strokeColor=none;fillColor=none;align=center;verticalAlign=middle;whiteSpace=wrap;rounded=0;rotation=0;fontFamily=Roboto;fontSource=https%3A%2F%2Ffonts.googleapis.com%2Fcss%3Ffamily%3DRoboto;" parent="oSWGqV9o0AvBEBVBbeev-1" vertex="1">
          <mxGeometry x="519.75" y="185" width="50" height="20" as="geometry" />
        </mxCell>
        <mxCell id="SQ0sSNVoyY-ed8Ng0SWT-50" style="edgeStyle=none;rounded=0;sketch=0;orthogonalLoop=1;jettySize=auto;html=1;exitX=1;exitY=0.5;exitDx=0;exitDy=0;entryX=0;entryY=0.5;entryDx=0;entryDy=0;endArrow=none;endFill=0;fontSize=10;fontFamily=Roboto;fontSource=https%3A%2F%2Ffonts.googleapis.com%2Fcss%3Ffamily%3DRoboto;" parent="oSWGqV9o0AvBEBVBbeev-1" source="SQ0sSNVoyY-ed8Ng0SWT-51" target="SQ0sSNVoyY-ed8Ng0SWT-46" edge="1">
          <mxGeometry relative="1" as="geometry">
            <mxPoint x="497.75" y="310" as="sourcePoint" />
          </mxGeometry>
        </mxCell>
        <mxCell id="SQ0sSNVoyY-ed8Ng0SWT-51" value="&lt;font data-font-src=&quot;https://fonts.googleapis.com/css?family=Roboto&quot;&gt;Include&lt;/font&gt;" style="rhombus;whiteSpace=wrap;html=1;rounded=0;sketch=0;fontFamily=Roboto;fontSource=https%3A%2F%2Ffonts.googleapis.com%2Fcss%3Ffamily%3DRoboto;gradientColor=#ffd966;fillColor=#fff2cc;strokeColor=#d6b656;" parent="oSWGqV9o0AvBEBVBbeev-1" vertex="1">
          <mxGeometry x="339.5" y="240" width="80" height="40" as="geometry" />
        </mxCell>
        <mxCell id="SQ0sSNVoyY-ed8Ng0SWT-57" value="" style="endArrow=none;html=1;fontFamily=Roboto;fontSource=https%3A%2F%2Ffonts.googleapis.com%2Fcss%3Ffamily%3DRoboto;exitX=0;exitY=0.5;exitDx=0;exitDy=0;entryX=0.5;entryY=1;entryDx=0;entryDy=0;" parent="oSWGqV9o0AvBEBVBbeev-1" source="SQ0sSNVoyY-ed8Ng0SWT-41" target="SQ0sSNVoyY-ed8Ng0SWT-58" edge="1">
          <mxGeometry width="50" height="50" relative="1" as="geometry">
            <mxPoint x="118" y="310" as="sourcePoint" />
            <mxPoint x="98" y="310" as="targetPoint" />
          </mxGeometry>
        </mxCell>
        <mxCell id="SQ0sSNVoyY-ed8Ng0SWT-58" value="" style="ellipse;fontFamily=Roboto;fontSource=https%3A%2F%2Ffonts.googleapis.com%2Fcss%3Ffamily%3DRoboto;rotation=-90;" parent="oSWGqV9o0AvBEBVBbeev-1" vertex="1">
          <mxGeometry x="80" y="250" width="20" height="20" as="geometry" />
        </mxCell>
        <mxCell id="SQ0sSNVoyY-ed8Ng0SWT-59" value="&lt;div&gt;Numero&lt;/div&gt;&lt;div&gt;progressivo&lt;/div&gt;" style="text;html=1;strokeColor=none;fillColor=none;align=center;verticalAlign=middle;whiteSpace=wrap;rounded=0;fontFamily=Roboto;fontSource=https%3A%2F%2Ffonts.googleapis.com%2Fcss%3Ffamily%3DRoboto;rotation=0;" parent="oSWGqV9o0AvBEBVBbeev-1" vertex="1">
          <mxGeometry x="20" y="250" width="40" height="20" as="geometry" />
        </mxCell>
        <mxCell id="SQ0sSNVoyY-ed8Ng0SWT-60" value="" style="ellipse;fontFamily=Roboto;fontSource=https%3A%2F%2Ffonts.googleapis.com%2Fcss%3Ffamily%3DRoboto;fillColor=#000000;" parent="oSWGqV9o0AvBEBVBbeev-1" vertex="1">
          <mxGeometry x="100" y="280" width="20" height="20" as="geometry" />
        </mxCell>
        <mxCell id="SQ0sSNVoyY-ed8Ng0SWT-63" value="Unità di misura" style="text;html=1;strokeColor=none;fillColor=none;align=center;verticalAlign=middle;whiteSpace=wrap;rounded=0;fontFamily=Roboto;fontSource=https%3A%2F%2Ffonts.googleapis.com%2Fcss%3Ffamily%3DRoboto;rotation=0;" parent="oSWGqV9o0AvBEBVBbeev-1" vertex="1">
          <mxGeometry x="644.75" y="250" width="50" height="20" as="geometry" />
        </mxCell>
        <mxCell id="SQ0sSNVoyY-ed8Ng0SWT-64" value="" style="group;fontFamily=Roboto;fontSource=https%3A%2F%2Ffonts.googleapis.com%2Fcss%3Ffamily%3DRoboto;" parent="oSWGqV9o0AvBEBVBbeev-1" connectable="0" vertex="1">
          <mxGeometry x="474.75" y="170" width="40" height="70" as="geometry" />
        </mxCell>
        <mxCell id="SQ0sSNVoyY-ed8Ng0SWT-65" value="" style="ellipse;whiteSpace=wrap;html=1;aspect=fixed;fontFamily=Roboto;fontSource=https%3A%2F%2Ffonts.googleapis.com%2Fcss%3Ffamily%3DRoboto;" parent="SQ0sSNVoyY-ed8Ng0SWT-64" vertex="1">
          <mxGeometry x="10" y="10" width="20" height="20" as="geometry" />
        </mxCell>
        <mxCell id="SQ0sSNVoyY-ed8Ng0SWT-66" value="" style="endArrow=none;html=1;entryX=0.5;entryY=1;entryDx=0;entryDy=0;fontFamily=Roboto;fontSource=https%3A%2F%2Ffonts.googleapis.com%2Fcss%3Ffamily%3DRoboto;" parent="SQ0sSNVoyY-ed8Ng0SWT-64" target="SQ0sSNVoyY-ed8Ng0SWT-65" edge="1">
          <mxGeometry width="50" height="50" relative="1" as="geometry">
            <mxPoint x="20" y="70" as="sourcePoint" />
            <mxPoint x="440" as="targetPoint" />
          </mxGeometry>
        </mxCell>
        <mxCell id="SQ0sSNVoyY-ed8Ng0SWT-71" value="Evade" style="rhombus;whiteSpace=wrap;html=1;rounded=0;sketch=0;fontFamily=Roboto;fontSource=https%3A%2F%2Ffonts.googleapis.com%2Fcss%3Ffamily%3DRoboto;gradientColor=#ffd966;fillColor=#fff2cc;strokeColor=#d6b656;" parent="oSWGqV9o0AvBEBVBbeev-1" vertex="1">
          <mxGeometry x="160" y="500" width="80" height="40" as="geometry" />
        </mxCell>
        <mxCell id="SQ0sSNVoyY-ed8Ng0SWT-73" value="(1,N)" style="text;html=1;strokeColor=none;fillColor=none;align=center;verticalAlign=middle;whiteSpace=wrap;rounded=0;fontFamily=Roboto;fontSource=https%3A%2F%2Ffonts.googleapis.com%2Fcss%3Ffamily%3DRoboto;" parent="oSWGqV9o0AvBEBVBbeev-1" vertex="1">
          <mxGeometry x="260" y="260" width="40" height="20" as="geometry" />
        </mxCell>
        <mxCell id="SQ0sSNVoyY-ed8Ng0SWT-77" value="(1,N)" style="text;html=1;strokeColor=none;fillColor=none;align=center;verticalAlign=middle;whiteSpace=wrap;rounded=0;fontFamily=Roboto;fontSource=https%3A%2F%2Ffonts.googleapis.com%2Fcss%3Ffamily%3DRoboto;" parent="oSWGqV9o0AvBEBVBbeev-1" vertex="1">
          <mxGeometry x="400.5" y="600" width="40" height="20" as="geometry" />
        </mxCell>
        <mxCell id="SQ0sSNVoyY-ed8Ng0SWT-80" value="" style="endArrow=none;html=1;entryX=0.5;entryY=1;entryDx=0;entryDy=0;fontFamily=Roboto;fontSource=https%3A%2F%2Ffonts.googleapis.com%2Fcss%3Ffamily%3DRoboto;exitX=1;exitY=0.5;exitDx=0;exitDy=0;" parent="oSWGqV9o0AvBEBVBbeev-1" source="SQ0sSNVoyY-ed8Ng0SWT-46" target="SQ0sSNVoyY-ed8Ng0SWT-62" edge="1">
          <mxGeometry x="624.75" y="250" width="50" height="50" as="geometry">
            <mxPoint x="604.75" y="260" as="sourcePoint" />
            <mxPoint x="674.75" y="690" as="targetPoint" />
          </mxGeometry>
        </mxCell>
        <mxCell id="SQ0sSNVoyY-ed8Ng0SWT-87" value="" style="ellipse;whiteSpace=wrap;html=1;aspect=fixed;rotation=105;fontFamily=Roboto;fontSource=https%3A%2F%2Ffonts.googleapis.com%2Fcss%3Ffamily%3DRoboto;" parent="oSWGqV9o0AvBEBVBbeev-1" vertex="1">
          <mxGeometry x="649.9999999999999" y="40" width="20" height="20" as="geometry" />
        </mxCell>
        <mxCell id="SQ0sSNVoyY-ed8Ng0SWT-88" value="" style="ellipse;whiteSpace=wrap;html=1;aspect=fixed;rotation=75;fontFamily=Roboto;fontSource=https%3A%2F%2Ffonts.googleapis.com%2Fcss%3Ffamily%3DRoboto;" parent="oSWGqV9o0AvBEBVBbeev-1" vertex="1">
          <mxGeometry x="649.9999999999999" y="100" width="20" height="20" as="geometry" />
        </mxCell>
        <mxCell id="SQ0sSNVoyY-ed8Ng0SWT-89" value="Provincia" style="text;html=1;strokeColor=none;fillColor=none;align=center;verticalAlign=middle;whiteSpace=wrap;rounded=0;rotation=0;fontFamily=Roboto;fontSource=https%3A%2F%2Ffonts.googleapis.com%2Fcss%3Ffamily%3DRoboto;" parent="oSWGqV9o0AvBEBVBbeev-1" vertex="1">
          <mxGeometry x="670" y="100" width="55" height="20" as="geometry" />
        </mxCell>
        <mxCell id="SQ0sSNVoyY-ed8Ng0SWT-90" value="Comune" style="text;html=1;strokeColor=none;fillColor=none;align=center;verticalAlign=middle;whiteSpace=wrap;rounded=0;rotation=0;fontFamily=Roboto;fontSource=https%3A%2F%2Ffonts.googleapis.com%2Fcss%3Ffamily%3DRoboto;" parent="oSWGqV9o0AvBEBVBbeev-1" vertex="1">
          <mxGeometry x="670" y="40" width="55" height="20" as="geometry" />
        </mxCell>
        <mxCell id="SQ0sSNVoyY-ed8Ng0SWT-91" value="&lt;div&gt;Fornitore&lt;/div&gt;" style="rounded=0;whiteSpace=wrap;html=1;fontFamily=Roboto;fontSource=https%3A%2F%2Ffonts.googleapis.com%2Fcss%3Ffamily%3DRoboto;fillColor=#f8cecc;strokeColor=#b85450;gradientColor=#ea6b66;" parent="oSWGqV9o0AvBEBVBbeev-1" vertex="1">
          <mxGeometry x="280.5" y="580" width="120" height="40" as="geometry" />
        </mxCell>
        <mxCell id="SQ0sSNVoyY-ed8Ng0SWT-108" value="&lt;div&gt;Dipartimento&lt;/div&gt;" style="rounded=0;whiteSpace=wrap;html=1;fontFamily=Roboto;fontSource=https%3A%2F%2Ffonts.googleapis.com%2Fcss%3Ffamily%3DRoboto;fillColor=#f8cecc;strokeColor=#b85450;gradientColor=#ea6b66;" parent="oSWGqV9o0AvBEBVBbeev-1" vertex="1">
          <mxGeometry x="140" y="80" width="120" height="40" as="geometry" />
        </mxCell>
        <mxCell id="SQ0sSNVoyY-ed8Ng0SWT-117" value="&lt;div&gt;(1, N)&lt;/div&gt;" style="text;html=1;align=center;verticalAlign=middle;resizable=0;points=[];autosize=1;strokeColor=none;rotation=0;fontFamily=Roboto;fontSource=https%3A%2F%2Ffonts.googleapis.com%2Fcss%3Ffamily%3DRoboto;" parent="oSWGqV9o0AvBEBVBbeev-1" vertex="1">
          <mxGeometry x="390" y="560" width="40" height="20" as="geometry" />
        </mxCell>
        <mxCell id="SQ0sSNVoyY-ed8Ng0SWT-129" value="" style="endArrow=none;html=1;exitX=0.5;exitY=0;exitDx=0;exitDy=0;fontFamily=Roboto;fontSource=https%3A%2F%2Ffonts.googleapis.com%2Fcss%3Ffamily%3DRoboto;startArrow=none;" parent="oSWGqV9o0AvBEBVBbeev-1" source="SQ0sSNVoyY-ed8Ng0SWT-138" edge="1">
          <mxGeometry width="50" height="50" relative="1" as="geometry">
            <mxPoint x="98" y="290" as="sourcePoint" />
            <mxPoint x="208" y="230" as="targetPoint" />
            <Array as="points">
              <mxPoint x="110" y="230" />
            </Array>
          </mxGeometry>
        </mxCell>
        <mxCell id="SQ0sSNVoyY-ed8Ng0SWT-136" value="Quantità" style="text;html=1;strokeColor=none;fillColor=none;align=center;verticalAlign=middle;whiteSpace=wrap;rounded=0;fontFamily=Roboto;fontSource=https%3A%2F%2Ffonts.googleapis.com%2Fcss%3Ffamily%3DRoboto;" parent="oSWGqV9o0AvBEBVBbeev-1" vertex="1">
          <mxGeometry x="389.5" y="190" width="40" height="20" as="geometry" />
        </mxCell>
        <mxCell id="SQ0sSNVoyY-ed8Ng0SWT-137" value="" style="ellipse;fontFamily=Roboto;fontSource=https%3A%2F%2Ffonts.googleapis.com%2Fcss%3Ffamily%3DRoboto;fillColor=#000000;" parent="oSWGqV9o0AvBEBVBbeev-1" vertex="1">
          <mxGeometry x="195" y="225" width="10" height="10" as="geometry" />
        </mxCell>
        <mxCell id="SQ0sSNVoyY-ed8Ng0SWT-138" value="" style="ellipse;fontFamily=Roboto;fontSource=https%3A%2F%2Ffonts.googleapis.com%2Fcss%3Ffamily%3DRoboto;fillColor=#000000;" parent="oSWGqV9o0AvBEBVBbeev-1" vertex="1">
          <mxGeometry x="105" y="255" width="10" height="10" as="geometry" />
        </mxCell>
        <mxCell id="SQ0sSNVoyY-ed8Ng0SWT-139" value="" style="endArrow=none;html=1;exitX=0.5;exitY=0;exitDx=0;exitDy=0;fontFamily=Roboto;fontSource=https%3A%2F%2Ffonts.googleapis.com%2Fcss%3Ffamily%3DRoboto;" parent="oSWGqV9o0AvBEBVBbeev-1" source="SQ0sSNVoyY-ed8Ng0SWT-60" target="SQ0sSNVoyY-ed8Ng0SWT-138" edge="1">
          <mxGeometry width="50" height="50" relative="1" as="geometry">
            <mxPoint x="108" y="330" as="sourcePoint" />
            <mxPoint x="208" y="250" as="targetPoint" />
            <Array as="points" />
          </mxGeometry>
        </mxCell>
        <mxCell id="SQ0sSNVoyY-ed8Ng0SWT-142" value="&lt;div&gt;Data di consegna&lt;/div&gt;" style="text;html=1;strokeColor=none;fillColor=none;align=center;verticalAlign=middle;whiteSpace=wrap;rounded=0;fontFamily=Roboto;fontSource=https%3A%2F%2Ffonts.googleapis.com%2Fcss%3Ffamily%3DRoboto;rotation=0;" parent="oSWGqV9o0AvBEBVBbeev-1" vertex="1">
          <mxGeometry x="320" y="180" width="59" height="30" as="geometry" />
        </mxCell>
        <mxCell id="SQ0sSNVoyY-ed8Ng0SWT-8" value="&lt;div&gt;Codice&lt;/div&gt;&lt;div&gt;ordine&lt;/div&gt;" style="text;html=1;strokeColor=none;fillColor=none;align=center;verticalAlign=middle;whiteSpace=wrap;rounded=0;fontFamily=Roboto;fontSource=https%3A%2F%2Ffonts.googleapis.com%2Fcss%3Ffamily%3DRoboto;" parent="oSWGqV9o0AvBEBVBbeev-1" vertex="1">
          <mxGeometry x="110" y="359" width="80" height="30" as="geometry" />
        </mxCell>
        <mxCell id="SQ0sSNVoyY-ed8Ng0SWT-2" value="Ordine" style="rounded=0;whiteSpace=wrap;html=1;fontFamily=Roboto;fontSource=https%3A%2F%2Ffonts.googleapis.com%2Fcss%3Ffamily%3DRoboto;fillColor=#f8cecc;strokeColor=#b85450;gradientColor=#ea6b66;" parent="oSWGqV9o0AvBEBVBbeev-1" vertex="1">
          <mxGeometry x="140" y="420" width="120" height="40" as="geometry" />
        </mxCell>
        <mxCell id="SQ0sSNVoyY-ed8Ng0SWT-67" value="&lt;div&gt;Descrizione&lt;/div&gt;" style="text;html=1;strokeColor=none;fillColor=none;align=center;verticalAlign=middle;whiteSpace=wrap;rounded=0;fontFamily=Roboto;fontSource=https%3A%2F%2Ffonts.googleapis.com%2Fcss%3Ffamily%3DRoboto;" parent="oSWGqV9o0AvBEBVBbeev-1" vertex="1">
          <mxGeometry x="474.75" y="160" width="40" height="20" as="geometry" />
        </mxCell>
        <mxCell id="SQ0sSNVoyY-ed8Ng0SWT-54" value="" style="ellipse;whiteSpace=wrap;html=1;aspect=fixed;fontFamily=Roboto;fontSource=https%3A%2F%2Ffonts.googleapis.com%2Fcss%3Ffamily%3DRoboto;" parent="oSWGqV9o0AvBEBVBbeev-1" vertex="1">
          <mxGeometry x="584.75" y="180" width="20" height="20" as="geometry" />
        </mxCell>
        <mxCell id="SQ0sSNVoyY-ed8Ng0SWT-55" value="" style="endArrow=none;html=1;entryX=0.5;entryY=1;entryDx=0;entryDy=0;fontFamily=Roboto;fontSource=https%3A%2F%2Ffonts.googleapis.com%2Fcss%3Ffamily%3DRoboto;" parent="oSWGqV9o0AvBEBVBbeev-1" target="SQ0sSNVoyY-ed8Ng0SWT-54" edge="1">
          <mxGeometry x="574.75" y="170" width="50" height="50" as="geometry">
            <mxPoint x="594.75" y="240" as="sourcePoint" />
            <mxPoint x="1014.75" y="170" as="targetPoint" />
          </mxGeometry>
        </mxCell>
        <mxCell id="SQ0sSNVoyY-ed8Ng0SWT-56" value="&lt;div&gt;Classe&lt;/div&gt;&lt;div&gt;merceologica&lt;br&gt;&lt;/div&gt;" style="text;html=1;strokeColor=none;fillColor=none;align=center;verticalAlign=middle;whiteSpace=wrap;rounded=0;fontFamily=Roboto;fontSource=https%3A%2F%2Ffonts.googleapis.com%2Fcss%3Ffamily%3DRoboto;" parent="oSWGqV9o0AvBEBVBbeev-1" vertex="1">
          <mxGeometry x="574.75" y="160" width="40" height="10" as="geometry" />
        </mxCell>
        <mxCell id="SQ0sSNVoyY-ed8Ng0SWT-62" value="" style="ellipse;whiteSpace=wrap;html=1;aspect=fixed;fontFamily=Roboto;fontSource=https%3A%2F%2Ffonts.googleapis.com%2Fcss%3Ffamily%3DRoboto;rotation=90;" parent="oSWGqV9o0AvBEBVBbeev-1" vertex="1">
          <mxGeometry x="624.75" y="250" width="20" height="20" as="geometry" />
        </mxCell>
        <mxCell id="SQ0sSNVoyY-ed8Ng0SWT-156" value="Fornisce" style="rhombus;whiteSpace=wrap;html=1;rounded=0;sketch=0;fontFamily=Roboto;fontSource=https%3A%2F%2Ffonts.googleapis.com%2Fcss%3Ffamily%3DRoboto;gradientColor=#ffd966;fillColor=#fff2cc;strokeColor=#d6b656;" parent="oSWGqV9o0AvBEBVBbeev-1" vertex="1">
          <mxGeometry x="504.75" y="429" width="80" height="40" as="geometry" />
        </mxCell>
        <mxCell id="SQ0sSNVoyY-ed8Ng0SWT-159" value="" style="endArrow=none;html=1;fontFamily=Roboto;fontSource=https%3A%2F%2Ffonts.googleapis.com%2Fcss%3Ffamily%3DRoboto;startSize=6;endSize=6;exitX=1;exitY=0.5;exitDx=0;exitDy=0;entryX=0.5;entryY=1;entryDx=0;entryDy=0;" parent="oSWGqV9o0AvBEBVBbeev-1" source="SQ0sSNVoyY-ed8Ng0SWT-91" target="SQ0sSNVoyY-ed8Ng0SWT-156" edge="1">
          <mxGeometry width="50" height="50" relative="1" as="geometry">
            <mxPoint x="390" y="440" as="sourcePoint" />
            <mxPoint x="480" y="560" as="targetPoint" />
            <Array as="points">
              <mxPoint x="545" y="600" />
            </Array>
          </mxGeometry>
        </mxCell>
        <mxCell id="SQ0sSNVoyY-ed8Ng0SWT-161" value="" style="endArrow=none;html=1;fontFamily=Roboto;fontSource=https%3A%2F%2Ffonts.googleapis.com%2Fcss%3Ffamily%3DRoboto;startSize=6;endSize=6;exitX=0.5;exitY=0;exitDx=0;exitDy=0;entryX=0.5;entryY=1;entryDx=0;entryDy=0;" parent="oSWGqV9o0AvBEBVBbeev-1" source="SQ0sSNVoyY-ed8Ng0SWT-71" target="SQ0sSNVoyY-ed8Ng0SWT-2" edge="1">
          <mxGeometry width="50" height="50" relative="1" as="geometry">
            <mxPoint x="390" y="480" as="sourcePoint" />
            <mxPoint x="220" y="470" as="targetPoint" />
          </mxGeometry>
        </mxCell>
        <mxCell id="SQ0sSNVoyY-ed8Ng0SWT-162" value="" style="endArrow=none;html=1;fontFamily=Roboto;fontSource=https%3A%2F%2Ffonts.googleapis.com%2Fcss%3Ffamily%3DRoboto;startSize=6;endSize=6;entryX=0.5;entryY=1;entryDx=0;entryDy=0;exitX=0;exitY=0.5;exitDx=0;exitDy=0;" parent="oSWGqV9o0AvBEBVBbeev-1" source="SQ0sSNVoyY-ed8Ng0SWT-91" target="SQ0sSNVoyY-ed8Ng0SWT-71" edge="1">
          <mxGeometry width="50" height="50" relative="1" as="geometry">
            <mxPoint x="210" y="650" as="sourcePoint" />
            <mxPoint x="260" y="600" as="targetPoint" />
            <Array as="points">
              <mxPoint x="200" y="600" />
            </Array>
          </mxGeometry>
        </mxCell>
        <mxCell id="SQ0sSNVoyY-ed8Ng0SWT-164" value="" style="endArrow=none;html=1;fontFamily=Roboto;fontSource=https%3A%2F%2Ffonts.googleapis.com%2Fcss%3Ffamily%3DRoboto;startSize=6;endSize=6;exitX=1;exitY=0.5;exitDx=0;exitDy=0;entryX=0.5;entryY=1;entryDx=0;entryDy=0;" parent="oSWGqV9o0AvBEBVBbeev-1" source="SQ0sSNVoyY-ed8Ng0SWT-2" target="SQ0sSNVoyY-ed8Ng0SWT-51" edge="1">
          <mxGeometry width="50" height="50" relative="1" as="geometry">
            <mxPoint x="260" y="350" as="sourcePoint" />
            <mxPoint x="310" y="300" as="targetPoint" />
            <Array as="points">
              <mxPoint x="380" y="440" />
            </Array>
          </mxGeometry>
        </mxCell>
        <mxCell id="SQ0sSNVoyY-ed8Ng0SWT-166" value="" style="endArrow=none;html=1;fontFamily=Roboto;fontSource=https%3A%2F%2Ffonts.googleapis.com%2Fcss%3Ffamily%3DRoboto;startSize=6;endSize=6;entryX=0.5;entryY=1;entryDx=0;entryDy=0;exitX=0.5;exitY=0;exitDx=0;exitDy=0;" parent="oSWGqV9o0AvBEBVBbeev-1" source="SQ0sSNVoyY-ed8Ng0SWT-156" target="SQ0sSNVoyY-ed8Ng0SWT-46" edge="1">
          <mxGeometry width="50" height="50" relative="1" as="geometry">
            <mxPoint x="410" y="430" as="sourcePoint" />
            <mxPoint x="460" y="380" as="targetPoint" />
          </mxGeometry>
        </mxCell>
        <mxCell id="SQ0sSNVoyY-ed8Ng0SWT-187" value="" style="ellipse;whiteSpace=wrap;html=1;aspect=fixed;fontFamily=Roboto;fontSource=https%3A%2F%2Ffonts.googleapis.com%2Fcss%3Ffamily%3DRoboto;rotation=-180;" parent="oSWGqV9o0AvBEBVBbeev-1" vertex="1">
          <mxGeometry x="564.75" y="469.5" width="20" height="20" as="geometry" />
        </mxCell>
        <mxCell id="SQ0sSNVoyY-ed8Ng0SWT-188" value="Sconto" style="text;html=1;strokeColor=none;fillColor=none;align=center;verticalAlign=middle;whiteSpace=wrap;rounded=0;fontFamily=Roboto;fontSource=https%3A%2F%2Ffonts.googleapis.com%2Fcss%3Ffamily%3DRoboto;rotation=0;" parent="oSWGqV9o0AvBEBVBbeev-1" vertex="1">
          <mxGeometry x="554.75" y="488.5" width="40" height="20" as="geometry" />
        </mxCell>
        <mxCell id="ZC6GJjPHj74emAYdj6tf-5" value="" style="ellipse;whiteSpace=wrap;html=1;aspect=fixed;fontFamily=Roboto;fontSource=https%3A%2F%2Ffonts.googleapis.com%2Fcss%3Ffamily%3DRoboto;rotation=-180;" parent="oSWGqV9o0AvBEBVBbeev-1" vertex="1">
          <mxGeometry x="290" y="640" width="20" height="20" as="geometry" />
        </mxCell>
        <mxCell id="ZC6GJjPHj74emAYdj6tf-6" value="&lt;div&gt;Indirizzo&lt;/div&gt;&lt;div&gt;email&lt;/div&gt;" style="text;html=1;strokeColor=none;fillColor=none;align=center;verticalAlign=middle;whiteSpace=wrap;rounded=0;fontFamily=Roboto;fontSource=https%3A%2F%2Ffonts.googleapis.com%2Fcss%3Ffamily%3DRoboto;rotation=0;" parent="oSWGqV9o0AvBEBVBbeev-1" vertex="1">
          <mxGeometry x="280" y="665" width="40" height="20" as="geometry" />
        </mxCell>
        <mxCell id="ZC6GJjPHj74emAYdj6tf-7" value="" style="endArrow=none;html=1;entryX=0.5;entryY=1;entryDx=0;entryDy=0;fontFamily=Roboto;fontSource=https%3A%2F%2Ffonts.googleapis.com%2Fcss%3Ffamily%3DRoboto;" parent="oSWGqV9o0AvBEBVBbeev-1" target="ZC6GJjPHj74emAYdj6tf-5" edge="1">
          <mxGeometry x="230" y="630" width="50" height="50" as="geometry">
            <mxPoint x="300" y="620" as="sourcePoint" />
            <mxPoint x="-160" y="680" as="targetPoint" />
          </mxGeometry>
        </mxCell>
        <mxCell id="ZC6GJjPHj74emAYdj6tf-8" value="" style="ellipse;whiteSpace=wrap;html=1;aspect=fixed;fontFamily=Roboto;fontSource=https%3A%2F%2Ffonts.googleapis.com%2Fcss%3Ffamily%3DRoboto;rotation=-180;" parent="oSWGqV9o0AvBEBVBbeev-1" vertex="1">
          <mxGeometry x="370.5" y="640" width="20" height="20" as="geometry" />
        </mxCell>
        <mxCell id="ZC6GJjPHj74emAYdj6tf-9" value="Fax" style="text;html=1;strokeColor=none;fillColor=none;align=center;verticalAlign=middle;whiteSpace=wrap;rounded=0;fontFamily=Roboto;fontSource=https%3A%2F%2Ffonts.googleapis.com%2Fcss%3Ffamily%3DRoboto;rotation=0;" parent="oSWGqV9o0AvBEBVBbeev-1" vertex="1">
          <mxGeometry x="360" y="660" width="40" height="20" as="geometry" />
        </mxCell>
        <mxCell id="ZC6GJjPHj74emAYdj6tf-10" value="" style="endArrow=none;html=1;entryX=0.5;entryY=1;entryDx=0;entryDy=0;fontFamily=Roboto;fontSource=https%3A%2F%2Ffonts.googleapis.com%2Fcss%3Ffamily%3DRoboto;" parent="oSWGqV9o0AvBEBVBbeev-1" target="ZC6GJjPHj74emAYdj6tf-8" edge="1">
          <mxGeometry x="310.5" y="630" width="50" height="50" as="geometry">
            <mxPoint x="380.5" y="620" as="sourcePoint" />
            <mxPoint x="-79.5" y="680" as="targetPoint" />
          </mxGeometry>
        </mxCell>
        <mxCell id="ZC6GJjPHj74emAYdj6tf-11" value="(0,1)" style="text;html=1;strokeColor=none;fillColor=none;align=center;verticalAlign=middle;whiteSpace=wrap;rounded=0;fontFamily=Roboto;fontSource=https%3A%2F%2Ffonts.googleapis.com%2Fcss%3Ffamily%3DRoboto;" parent="oSWGqV9o0AvBEBVBbeev-1" vertex="1">
          <mxGeometry x="380" y="620" width="40" height="20" as="geometry" />
        </mxCell>
        <mxCell id="SQ0sSNVoyY-ed8Ng0SWT-183" value="&lt;div&gt;Quantita&lt;/div&gt;&lt;div&gt;minima&lt;br&gt;&lt;/div&gt;" style="text;html=1;strokeColor=none;fillColor=none;align=center;verticalAlign=middle;whiteSpace=wrap;rounded=0;fontFamily=Roboto;fontSource=https%3A%2F%2Ffonts.googleapis.com%2Fcss%3Ffamily%3DRoboto;" parent="oSWGqV9o0AvBEBVBbeev-1" vertex="1">
          <mxGeometry x="554.75" y="369" width="40" height="40" as="geometry" />
        </mxCell>
        <mxCell id="wtdNzL0f-ulyU3Cw6yBj-0" value="(1,N)" style="text;html=1;strokeColor=none;fillColor=none;align=center;verticalAlign=middle;whiteSpace=wrap;rounded=0;fontFamily=Roboto;fontSource=https%3A%2F%2Ffonts.googleapis.com%2Fcss%3Ffamily%3DRoboto;" parent="oSWGqV9o0AvBEBVBbeev-1" vertex="1">
          <mxGeometry x="544.75" y="280" width="40" height="20" as="geometry" />
        </mxCell>
        <mxCell id="wtdNzL0f-ulyU3Cw6yBj-1" value="(1,N)" style="text;html=1;strokeColor=none;fillColor=none;align=center;verticalAlign=middle;whiteSpace=wrap;rounded=0;fontFamily=Roboto;fontSource=https%3A%2F%2Ffonts.googleapis.com%2Fcss%3Ffamily%3DRoboto;" parent="oSWGqV9o0AvBEBVBbeev-1" vertex="1">
          <mxGeometry x="240" y="600" width="40" height="20" as="geometry" />
        </mxCell>
        <mxCell id="wtdNzL0f-ulyU3Cw6yBj-2" value="(1,N)" style="text;html=1;strokeColor=none;fillColor=none;align=center;verticalAlign=middle;whiteSpace=wrap;rounded=0;fontFamily=Roboto;fontSource=https%3A%2F%2Ffonts.googleapis.com%2Fcss%3Ffamily%3DRoboto;" parent="oSWGqV9o0AvBEBVBbeev-1" vertex="1">
          <mxGeometry x="200" y="459.5" width="40" height="20" as="geometry" />
        </mxCell>
        <mxCell id="wtdNzL0f-ulyU3Cw6yBj-3" value="(0,N)" style="text;html=1;strokeColor=none;fillColor=none;align=center;verticalAlign=middle;whiteSpace=wrap;rounded=0;fontFamily=Roboto;fontSource=https%3A%2F%2Ffonts.googleapis.com%2Fcss%3Ffamily%3DRoboto;" parent="oSWGqV9o0AvBEBVBbeev-1" vertex="1">
          <mxGeometry x="260" y="440.5" width="40" height="20" as="geometry" />
        </mxCell>
        <mxCell id="wtdNzL0f-ulyU3Cw6yBj-4" value="(1,N)" style="text;html=1;strokeColor=none;fillColor=none;align=center;verticalAlign=middle;whiteSpace=wrap;rounded=0;fontFamily=Roboto;fontSource=https%3A%2F%2Ffonts.googleapis.com%2Fcss%3Ffamily%3DRoboto;" parent="oSWGqV9o0AvBEBVBbeev-1" vertex="1">
          <mxGeometry x="444.75" y="260" width="40" height="20" as="geometry" />
        </mxCell>
        <mxCell id="v3urgeHAOFS-kcSvMq08-0" value="" style="ellipse;whiteSpace=wrap;html=1;aspect=fixed;fontFamily=Roboto;fontSource=https%3A%2F%2Ffonts.googleapis.com%2Fcss%3Ffamily%3DRoboto;rotation=-180;dashed=1;" parent="oSWGqV9o0AvBEBVBbeev-1" vertex="1">
          <mxGeometry x="230" y="290" width="20" height="20" as="geometry" />
        </mxCell>
        <mxCell id="nri4QHcRawTcVYY0NXm0-0" value="&lt;div&gt;Stato&lt;/div&gt;&lt;div&gt;ordine&lt;br&gt;&lt;/div&gt;" style="text;html=1;strokeColor=none;fillColor=none;align=center;verticalAlign=middle;whiteSpace=wrap;rounded=0;fontFamily=Roboto;fontSource=https%3A%2F%2Ffonts.googleapis.com%2Fcss%3Ffamily%3DRoboto;" parent="oSWGqV9o0AvBEBVBbeev-1" vertex="1">
          <mxGeometry x="60" y="429" width="40" height="20" as="geometry" />
        </mxCell>
        <mxCell id="nri4QHcRawTcVYY0NXm0-2" value="&lt;span style=&quot;color: rgba(0, 0, 0, 0); font-size: 0px;&quot;&gt;%3CmxGraphModel%3E%3Croot%3E%3CmxCell%20id%3D%220%22%2F%3E%3CmxCell%20id%3D%221%22%20parent%3D%220%22%2F%3E%3CmxCell%20id%3D%222%22%20value%3D%22%22%20style%3D%22group%3BfontFamily%3DRoboto%3BfontSource%3Dhttps%253A%252F%252Ffonts.googleapis.com%252Fcss%253Ffamily%253DRoboto%3B%22%20connectable%3D%220%22%20vertex%3D%221%22%20parent%3D%221%22%3E%3CmxGeometry%20x%3D%2250%22%20y%3D%22450%22%20width%3D%22130%22%20height%3D%22140%22%20as%3D%22geometry%22%2F%3E%3C%2FmxCell%3E%3CmxCell%20id%3D%223%22%20value%3D%22Ordine%22%20style%3D%22rounded%3D0%3BwhiteSpace%3Dwrap%3Bhtml%3D1%3BfontFamily%3DRoboto%3BfontSource%3Dhttps%253A%252F%252Ffonts.googleapis.com%252Fcss%253Ffamily%253DRoboto%3BfillColor%3D%23f8cecc%3BstrokeColor%3D%23b85450%3BgradientColor%3D%23ea6b66%3B%22%20vertex%3D%221%22%20parent%3D%222%22%3E%3CmxGeometry%20x%3D%2240%22%20y%3D%2280%22%20width%3D%22120%22%20height%3D%2260%22%20as%3D%22geometry%22%2F%3E%3C%2FmxCell%3E%3CmxCell%20id%3D%224%22%20value%3D%22%22%20style%3D%22group%3BfontFamily%3DRoboto%3BfontSource%3Dhttps%253A%252F%252Ffonts.googleapis.com%252Fcss%253Ffamily%253DRoboto%3B%22%20connectable%3D%220%22%20vertex%3D%221%22%20parent%3D%222%22%3E%3CmxGeometry%20x%3D%2290%22%20width%3D%2240%22%20height%3D%2280%22%20as%3D%22geometry%22%2F%3E%3C%2FmxCell%3E%3CmxCell%20id%3D%225%22%20value%3D%22%22%20style%3D%22ellipse%3BwhiteSpace%3Dwrap%3Bhtml%3D1%3Baspect%3Dfixed%3BfontFamily%3DRoboto%3BfontSource%3Dhttps%253A%252F%252Ffonts.googleapis.com%252Fcss%253Ffamily%253DRoboto%3B%22%20vertex%3D%221%22%20parent%3D%224%22%3E%3CmxGeometry%20x%3D%2230%22%20y%3D%2230%22%20width%3D%2220%22%20height%3D%2220%22%20as%3D%22geometry%22%2F%3E%3C%2FmxCell%3E%3CmxCell%20id%3D%226%22%20value%3D%22%26lt%3Bdiv%26gt%3BData%20emissione%26lt%3B%2Fdiv%26gt%3B%22%20style%3D%22text%3Bhtml%3D1%3BstrokeColor%3Dnone%3BfillColor%3Dnone%3Balign%3Dcenter%3BverticalAlign%3Dmiddle%3BwhiteSpace%3Dwrap%3Brounded%3D0%3BfontFamily%3DRoboto%3BfontSource%3Dhttps%253A%252F%252Ffonts.googleapis.com%252Fcss%253Ffamily%253DRoboto%3B%22%20vertex%3D%221%22%20parent%3D%224%22%3E%3CmxGeometry%20width%3D%2240%22%20height%3D%2220%22%20as%3D%22geometry%22%2F%3E%3C%2FmxCell%3E%3CmxCell%20id%3D%227%22%20value%3D%22%22%20style%3D%22group%3BfontFamily%3DRoboto%3BfontSource%3Dhttps%253A%252F%252Ffonts.googleapis.com%252Fcss%253Ffamily%253DRoboto%3B%22%20connectable%3D%220%22%20vertex%3D%221%22%20parent%3D%222%22%3E%3CmxGeometry%20x%3D%2210%22%20y%3D%2210%22%20width%3D%2260%22%20height%3D%2270%22%20as%3D%22geometry%22%2F%3E%3C%2FmxCell%3E%3CmxCell%20id%3D%228%22%20value%3D%22%22%20style%3D%22ellipse%3BfontFamily%3DRoboto%3BfontSource%3Dhttps%253A%252F%252Ffonts.googleapis.com%252Fcss%253Ffamily%253DRoboto%3BfillColor%3D%23000000%3B%22%20vertex%3D%221%22%20parent%3D%227%22%3E%3CmxGeometry%20x%3D%2210%22%20y%3D%2220%22%20width%3D%2220%22%20height%3D%2220%22%20as%3D%22geometry%22%2F%3E%3C%2FmxCell%3E%3CmxCell%20id%3D%229%22%20value%3D%22Codice%20ordine%22%20style%3D%22text%3Bhtml%3D1%3BstrokeColor%3Dnone%3BfillColor%3Dnone%3Balign%3Dcenter%3BverticalAlign%3Dmiddle%3BwhiteSpace%3Dwrap%3Brounded%3D0%3BfontFamily%3DRoboto%3BfontSource%3Dhttps%253A%252F%252Ffonts.googleapis.com%252Fcss%253Ffamily%253DRoboto%3B%22%20vertex%3D%221%22%20parent%3D%227%22%3E%3CmxGeometry%20x%3D%22-20%22%20y%3D%22-10%22%20width%3D%2280%22%20height%3D%2220%22%20as%3D%22geometry%22%2F%3E%3C%2FmxCell%3E%3CmxCell%20id%3D%2210%22%20value%3D%22%22%20style%3D%22endArrow%3Dnone%3Bhtml%3D1%3BfontFamily%3DRoboto%3BfontSource%3Dhttps%253A%252F%252Ffonts.googleapis.com%252Fcss%253Ffamily%253DRoboto%3BexitX%3D0.25%3BexitY%3D0%3BexitDx%3D0%3BexitDy%3D0%3B%22%20edge%3D%221%22%20parent%3D%222%22%20source%3D%223%22%20target%3D%228%22%3E%3CmxGeometry%20width%3D%2250%22%20height%3D%2250%22%20relative%3D%221%22%20as%3D%22geometry%22%3E%3CmxPoint%20x%3D%2240%22%20y%3D%2280%22%20as%3D%22sourcePoint%22%2F%3E%3CmxPoint%20x%3D%2240%22%20y%3D%2250%22%20as%3D%22targetPoint%22%2F%3E%3C%2FmxGeometry%3E%3C%2FmxCell%3E%3CmxCell%20id%3D%2211%22%20value%3D%22%22%20style%3D%22endArrow%3Dnone%3Bhtml%3D1%3BfontFamily%3DRoboto%3BfontSource%3Dhttps%253A%252F%252Ffonts.googleapis.com%252Fcss%253Ffamily%253DRoboto%3BexitX%3D0.75%3BexitY%3D0%3BexitDx%3D0%3BexitDy%3D0%3BentryX%3D0.5%3BentryY%3D1%3BentryDx%3D0%3BentryDy%3D0%3B%22%20edge%3D%221%22%20parent%3D%222%22%20source%3D%223%22%20target%3D%225%22%3E%3CmxGeometry%20x%3D%22100%22%20y%3D%2210%22%20width%3D%2250%22%20height%3D%2250%22%20as%3D%22geometry%22%3E%3CmxPoint%20x%3D%22120%22%20y%3D%2280%22%20as%3D%22sourcePoint%22%2F%3E%3CmxPoint%20x%3D%22123%22%20y%3D%2246%22%20as%3D%22targetPoint%22%2F%3E%3CArray%20as%3D%22points%22%2F%3E%3C%2FmxGeometry%3E%3C%2FmxCell%3E%3C%2Froot%3E%3C%2FmxGraphModel%3E&lt;/span&gt;" style="ellipse;whiteSpace=wrap;html=1;aspect=fixed;fontFamily=Roboto;fontSource=https%3A%2F%2Ffonts.googleapis.com%2Fcss%3Ffamily%3DRoboto;rotation=0;" parent="oSWGqV9o0AvBEBVBbeev-1" vertex="1">
          <mxGeometry x="105" y="430" width="20" height="20" as="geometry" />
        </mxCell>
        <mxCell id="nri4QHcRawTcVYY0NXm0-3" value="" style="ellipse;whiteSpace=wrap;html=1;aspect=fixed;fontFamily=Roboto;fontSource=https%3A%2F%2Ffonts.googleapis.com%2Fcss%3Ffamily%3DRoboto;rotation=-180;dashed=1;" parent="oSWGqV9o0AvBEBVBbeev-1" vertex="1">
          <mxGeometry x="399.5" y="285" width="20" height="20" as="geometry" />
        </mxCell>
        <mxCell id="nri4QHcRawTcVYY0NXm0-4" value="&lt;div&gt;Stato&lt;/div&gt;&lt;div&gt;articolo&lt;br&gt;&lt;/div&gt;" style="text;html=1;strokeColor=none;fillColor=none;align=center;verticalAlign=middle;whiteSpace=wrap;rounded=0;fontFamily=Roboto;fontSource=https%3A%2F%2Ffonts.googleapis.com%2Fcss%3Ffamily%3DRoboto;rotation=0;" parent="oSWGqV9o0AvBEBVBbeev-1" vertex="1">
          <mxGeometry x="389.5" y="315" width="40" height="20" as="geometry" />
        </mxCell>
        <mxCell id="nri4QHcRawTcVYY0NXm0-5" value="" style="endArrow=none;html=1;entryX=0.5;entryY=1;entryDx=0;entryDy=0;fontFamily=Roboto;fontSource=https%3A%2F%2Ffonts.googleapis.com%2Fcss%3Ffamily%3DRoboto;" parent="oSWGqV9o0AvBEBVBbeev-1" target="nri4QHcRawTcVYY0NXm0-3" edge="1">
          <mxGeometry x="339.5" y="275" width="50" height="50" as="geometry">
            <mxPoint x="409.5" y="265" as="sourcePoint" />
            <mxPoint x="-50.5" y="325" as="targetPoint" />
          </mxGeometry>
        </mxCell>
      </root>
    </mxGraphModel>
  </diagram>
</mxfile>
